<svg id="svg" version="1.1" xmlns="http://www.w3.org/2000/svg" xmlns:xlink="http://www.w3.org/1999/xlink" width="400" height="6.4623032311516155" viewBox="0, 0, 400,6.4623032311516155">
    <g id="svgg">
        <path id="path0" d="M75.278 0.111 C 75.217 0.172,75.167 1.597,75.167 3.278 L 75.167 6.333 116.500 6.333 L 157.833 6.333 157.833 3.167 L 157.833 0.000 116.611 0.000 C 93.939 0.000,75.339 0.050,75.278 0.111 " stroke="none" fill="#4ca32b" fill-rule="evenodd"></path>
        <path id="path1" d="M0.000 3.167 L 0.000 6.333 37.576 6.333 L 75.153 6.333 75.201 3.166 L 75.250 -0.000 37.625 -0.000 L 0.000 0.000 0.000 3.167 " stroke="none" fill="#049cdc" fill-rule="evenodd"></path>
        <path id="path2" d="M317.000 3.167 L 317.000 6.333 358.500 6.333 L 400.000 6.333 400.000 3.167 L 400.000 0.000 358.500 0.000 L 317.000 0.000 317.000 3.167 " stroke="none" fill="#54147c" fill-rule="evenodd"></path>
        <path id="path3" d="M157.833 3.166 L 157.833 6.333 198.837 6.333 L 239.841 6.333 239.795 3.208 L 239.750 0.083 198.792 0.041 L 157.833 -0.001 157.833 3.166 " stroke="none" fill="#eb8304" fill-rule="evenodd"></path>
        <path id="path4" d="M239.799 3.166 L 239.847 6.333 278.424 6.333 L 317.000 6.333 317.000 3.167 L 317.000 0.000 278.375 -0.000 L 239.750 -0.000 239.799 3.166 " stroke="none" fill="#cc0c14" fill-rule="evenodd"></path>
    </g>
</svg>