<?xml version="1.0" standalone="no"?>
<!DOCTYPE svg PUBLIC "-//W3C//DTD SVG 20010904//EN"
 "http://www.w3.org/TR/2001/REC-SVG-20010904/DTD/svg10.dtd">
<svg version="1.0" xmlns="http://www.w3.org/2000/svg"
 width="13066.000000pt" height="6918.000000pt" viewBox="0 0 13066.000000 6918.000000"
 preserveAspectRatio="xMidYMid meet">

<g transform="translate(0.000000,6918.000000) scale(0.100000,-0.100000)"
fill="#000000" stroke="none">
<path d="M8710 60278 c-19 -5 -134 -13 -255 -18 -352 -13 -461 -26 -595 -70
-115 -38 -243 -63 -395 -75 -112 -9 -230 -38 -316 -78 -100 -47 -125 -54 -263
-72 -132 -18 -154 -25 -250 -83 -41 -25 -88 -44 -128 -51 -116 -22 -173 -43
-223 -81 -67 -51 -80 -56 -183 -84 -103 -27 -114 -33 -170 -80 -23 -19 -74
-47 -114 -62 -48 -18 -86 -41 -111 -66 -44 -44 -68 -57 -159 -87 -55 -18 -75
-31 -103 -66 -20 -24 -57 -53 -83 -65 -26 -12 -72 -46 -102 -75 -30 -29 -71
-61 -90 -70 -19 -10 -59 -41 -90 -70 -30 -29 -84 -73 -119 -99 -36 -26 -78
-65 -94 -87 -16 -22 -50 -56 -75 -75 -25 -19 -61 -57 -79 -84 -18 -27 -59 -78
-91 -112 -32 -35 -73 -87 -90 -116 -18 -29 -49 -67 -68 -85 -21 -18 -50 -61
-69 -102 -18 -38 -47 -83 -65 -100 -35 -33 -59 -75 -90 -159 -12 -29 -38 -74
-59 -97 -51 -59 -57 -72 -75 -164 -19 -101 -29 -129 -66 -176 -44 -55 -56 -91
-85 -248 -14 -77 -41 -185 -61 -239 -70 -193 -77 -275 -81 -912 -3 -470 -2
-580 11 -655 8 -49 20 -121 26 -158 6 -38 26 -111 45 -163 19 -53 46 -162 61
-242 29 -164 38 -190 83 -246 19 -24 41 -73 57 -125 31 -101 54 -148 84 -176
27 -24 51 -71 75 -144 11 -34 35 -73 67 -108 27 -30 64 -87 83 -126 25 -51 45
-79 70 -95 19 -12 49 -47 66 -77 18 -33 48 -66 72 -82 22 -16 55 -48 72 -73
17 -24 51 -58 75 -75 24 -17 58 -50 75 -74 17 -26 50 -54 79 -70 27 -14 61
-43 75 -63 16 -23 47 -48 81 -65 30 -15 79 -49 107 -75 55 -49 101 -77 167
-98 21 -7 62 -34 91 -60 33 -30 78 -57 123 -75 42 -16 94 -47 128 -76 43 -36
71 -51 123 -64 108 -27 154 -46 196 -80 57 -46 69 -51 179 -74 108 -24 123
-30 179 -74 49 -38 94 -53 215 -72 119 -19 174 -37 218 -70 53 -41 97 -55 268
-86 135 -25 174 -37 250 -74 75 -37 113 -48 216 -66 160 -26 232 -45 290 -74
66 -33 136 -52 286 -74 73 -11 154 -29 180 -39 27 -11 84 -34 127 -51 57 -24
121 -38 242 -56 208 -31 208 -31 282 -71 83 -44 143 -61 291 -80 140 -18 208
-36 333 -88 52 -22 124 -42 185 -51 185 -30 249 -47 345 -91 79 -37 115 -47
210 -60 134 -18 189 -34 284 -84 39 -21 107 -45 150 -55 129 -28 170 -44 211
-79 49 -42 84 -60 159 -81 78 -23 104 -36 160 -85 26 -23 75 -53 109 -69 49
-22 68 -38 91 -74 16 -25 49 -58 73 -74 35 -21 52 -43 78 -96 18 -37 47 -85
65 -105 78 -88 104 -218 104 -507 -1 -315 -29 -469 -102 -546 -13 -15 -41 -60
-62 -100 -28 -55 -49 -82 -80 -103 -24 -16 -58 -50 -77 -77 -19 -26 -55 -59
-79 -74 -25 -14 -61 -45 -81 -70 -37 -44 -76 -66 -181 -99 -28 -10 -68 -33
-88 -52 -50 -46 -74 -57 -185 -84 -52 -12 -131 -39 -175 -61 -45 -22 -120 -47
-170 -58 -103 -22 -339 -42 -565 -47 -93 -2 -184 -10 -228 -20 -72 -15 -77
-15 -160 6 -76 20 -103 22 -217 16 -71 -3 -150 -1 -175 4 -25 5 -101 14 -170
20 -151 13 -223 30 -339 80 -49 21 -135 48 -192 60 -116 25 -161 44 -203 89
-20 21 -55 39 -110 57 -79 26 -148 65 -176 99 -8 10 -47 33 -87 52 -53 25 -78
44 -94 70 -12 19 -45 50 -74 68 -31 20 -65 53 -83 82 -19 29 -49 59 -73 72
-25 14 -54 44 -75 77 -19 30 -48 64 -66 76 -19 14 -43 50 -63 93 -18 39 -53
95 -79 125 -36 42 -53 74 -71 135 -14 45 -25 85 -25 91 0 5 -22 45 -49 87 -57
91 -65 117 -86 297 -11 103 -25 163 -56 255 -23 66 -48 128 -58 137 -19 20
-101 38 -175 38 -28 0 -105 -11 -171 -25 -84 -18 -160 -27 -252 -29 -72 -2
-137 -7 -144 -12 -8 -4 -95 -11 -194 -15 -99 -5 -254 -11 -345 -15 -146 -6
-173 -9 -230 -33 -52 -21 -79 -25 -133 -24 -42 2 -116 -7 -190 -22 -123 -24
-281 -39 -592 -55 -429 -23 -490 -28 -555 -49 -43 -14 -92 -21 -146 -21 -52 0
-100 -7 -135 -18 -30 -11 -85 -25 -124 -32 -84 -15 -119 -32 -141 -66 -27 -40
-13 -182 31 -308 43 -127 51 -163 76 -350 23 -176 36 -222 85 -294 35 -52 48
-95 78 -256 13 -65 24 -92 65 -152 32 -48 59 -103 75 -157 19 -60 37 -96 70
-136 31 -38 51 -76 70 -135 20 -62 38 -96 73 -137 25 -30 61 -86 80 -126 22
-49 46 -83 73 -104 22 -18 50 -54 63 -81 23 -49 92 -130 203 -242 33 -33 80
-91 102 -127 42 -66 210 -227 328 -314 29 -22 68 -57 84 -77 17 -21 55 -52 84
-69 29 -17 63 -47 76 -66 15 -22 48 -47 91 -68 46 -24 74 -45 89 -70 16 -27
43 -46 102 -75 44 -22 101 -59 127 -82 34 -30 69 -50 119 -66 53 -17 87 -36
128 -72 44 -39 75 -56 142 -77 57 -19 98 -40 126 -64 55 -48 86 -63 196 -94
51 -14 112 -39 134 -54 66 -46 97 -58 194 -81 55 -13 134 -42 195 -72 77 -38
131 -56 221 -75 114 -23 210 -54 274 -87 52 -27 139 -45 309 -66 111 -14 184
-28 230 -46 137 -52 190 -65 293 -74 204 -17 346 -31 440 -40 52 -6 136 -10
185 -10 57 0 135 -9 210 -25 l120 -25 661 0 662 0 54 25 c50 23 70 25 237 30
100 2 187 7 192 10 5 3 84 10 176 15 219 12 379 35 462 66 80 30 266 70 376
79 115 10 219 32 284 62 86 39 187 71 254 83 105 18 149 32 237 76 48 24 134
56 196 73 121 31 125 33 200 84 33 22 83 42 139 56 103 26 129 38 188 89 24
21 59 44 78 51 85 32 116 48 167 88 30 23 86 55 124 70 52 20 78 37 104 69 24
28 59 53 112 79 46 22 99 58 132 90 31 29 74 62 97 73 22 12 59 43 82 71 23
27 61 61 84 74 25 15 52 42 65 66 14 24 46 56 75 76 28 19 61 52 74 72 12 21
46 56 75 79 35 26 61 57 77 90 12 27 45 73 73 102 28 30 63 82 82 125 24 51
47 83 78 109 34 28 50 51 67 100 13 34 45 91 72 126 50 66 54 76 89 209 17 62
32 95 65 138 45 57 52 80 75 230 6 39 27 106 46 150 61 137 73 188 91 378 22
243 34 1171 16 1297 -7 47 -12 129 -13 182 0 125 -29 273 -90 468 -26 85 -53
191 -60 234 -15 100 -32 148 -75 211 -23 33 -43 83 -61 150 -31 116 -39 135
-91 198 -22 26 -50 77 -63 113 -16 46 -37 80 -67 112 -25 25 -62 82 -84 126
-22 45 -58 99 -81 121 -22 22 -54 63 -70 92 -20 35 -43 60 -74 78 -28 16 -57
45 -75 75 -18 29 -47 59 -73 74 -25 15 -57 46 -74 73 -20 30 -49 59 -81 77
-27 16 -66 49 -86 73 -21 25 -61 56 -96 74 -33 16 -86 54 -118 83 -36 33 -77
60 -111 72 -36 13 -70 35 -104 70 -42 42 -65 55 -132 78 -64 21 -89 36 -125
72 -32 33 -58 49 -96 59 -29 8 -77 22 -107 30 -31 9 -72 30 -97 51 -53 44 -84
57 -189 78 -86 18 -122 34 -202 90 -36 26 -70 38 -160 57 -84 17 -138 36 -212
72 -99 49 -154 64 -321 87 -71 10 -107 22 -171 55 -107 56 -126 62 -291 85
-140 19 -179 30 -323 88 -54 22 -122 37 -245 55 -105 16 -196 35 -237 51 -38
14 -97 37 -132 50 -38 15 -124 33 -211 45 -176 25 -203 32 -322 82 -78 34
-120 44 -265 65 -167 25 -236 43 -363 97 -41 17 -110 33 -210 47 -174 25 -253
43 -309 72 -71 36 -146 57 -259 73 -200 28 -230 35 -332 84 -61 30 -127 54
-170 61 -99 18 -165 43 -225 84 -31 22 -92 48 -153 67 -91 27 -108 36 -154 82
-29 27 -71 60 -95 72 -25 13 -55 39 -72 64 -16 24 -50 58 -76 77 -27 19 -51
42 -55 52 -4 9 -15 40 -25 68 -10 28 -34 73 -53 100 -48 68 -65 126 -78 265
-16 193 8 349 67 426 26 34 58 101 88 185 11 29 33 61 55 80 21 18 53 56 70
85 20 32 48 61 74 76 23 14 61 48 84 75 34 40 57 56 110 76 39 15 93 47 127
75 49 42 72 52 145 71 51 13 112 37 151 60 36 21 81 43 100 49 50 16 366 61
426 61 28 0 86 10 130 23 73 22 95 23 304 21 130 -1 243 -6 267 -13 54 -15
284 -47 433 -61 161 -15 228 -33 300 -79 43 -28 84 -45 138 -56 122 -26 144
-36 187 -80 28 -28 66 -52 120 -74 62 -25 91 -44 131 -85 27 -30 69 -63 92
-75 28 -14 53 -38 73 -71 19 -31 48 -60 80 -79 38 -24 55 -43 76 -86 14 -31
45 -77 68 -103 47 -52 74 -101 100 -180 9 -30 30 -68 45 -85 42 -49 66 -104
85 -195 19 -94 43 -169 73 -227 11 -22 30 -78 43 -125 24 -92 54 -133 104
-146 51 -13 325 12 390 36 54 20 73 21 188 16 114 -5 141 -3 250 20 104 23
152 27 327 30 113 2 214 7 225 10 18 5 167 11 905 32 245 7 257 9 315 34 60
26 60 26 263 20 l202 -5 115 38 c159 52 183 83 155 200 -5 22 -14 90 -20 150
-16 155 -34 225 -80 309 -31 57 -46 101 -66 197 -20 99 -36 147 -79 235 -30
62 -63 148 -74 192 -22 90 -35 116 -86 180 -21 26 -43 71 -56 115 -27 92 -43
122 -89 172 -21 24 -48 72 -64 113 -21 54 -38 81 -66 103 -21 17 -51 57 -68
92 -18 34 -57 91 -87 126 -31 35 -69 89 -84 120 -20 38 -44 66 -74 88 -26 18
-55 50 -67 73 -13 25 -40 53 -74 75 -31 21 -62 52 -75 76 -14 24 -43 52 -72
70 -29 19 -59 49 -78 78 -18 30 -46 58 -70 72 -24 13 -54 43 -72 71 -23 36
-44 54 -86 73 -30 15 -81 51 -113 80 -33 30 -86 68 -119 84 -33 17 -72 47 -88
67 -19 24 -54 48 -108 74 -44 21 -93 52 -110 70 -36 38 -67 55 -149 82 -42 14
-75 33 -106 63 -50 49 -65 56 -182 85 -61 15 -94 30 -133 60 -62 48 -97 63
-200 85 -87 19 -116 31 -188 81 -26 18 -71 37 -100 43 -28 6 -95 20 -147 30
-54 11 -127 34 -170 54 -93 44 -167 63 -312 82 -192 25 -390 66 -453 93 -67
28 -134 36 -440 52 -104 5 -239 14 -300 19 -144 13 -1269 12 -1315 -1z"/>
<path d="M56180 60184 c-31 -13 -62 -54 -78 -103 -16 -47 -17 -13427 -1
-13484 6 -22 25 -54 42 -73 l32 -35 1573 0 c1037 1 1587 4 1612 11 46 12 86
43 105 80 13 26 15 836 15 6755 0 5693 -2 6731 -14 6759 -19 45 -58 73 -119
85 -77 16 -3130 20 -3167 5z"/>
<path d="M39945 60174 c-43 -22 -74 -53 -96 -96 -18 -36 -19 -76 -19 -1142 l0
-1105 31 -36 c61 -69 -40 -66 1689 -63 l1555 3 40 21 c22 12 48 31 58 42 17
19 18 74 18 1143 l0 1123 -28 40 c-16 23 -47 51 -68 63 l-40 23 -1555 0
c-1390 0 -1558 -2 -1585 -16z"/>
<path d="M33405 56799 c-131 -5 -194 -12 -230 -24 -38 -14 -102 -20 -265 -26
-437 -16 -741 -45 -833 -78 -29 -10 -83 -30 -122 -44 -46 -17 -120 -31 -213
-42 -172 -19 -212 -31 -281 -78 -61 -42 -89 -51 -225 -73 -117 -19 -149 -31
-205 -78 -41 -34 -82 -50 -224 -87 -28 -7 -72 -31 -104 -55 -31 -24 -76 -51
-102 -60 -25 -9 -59 -21 -76 -27 -16 -6 -50 -30 -75 -53 -49 -45 -80 -63 -163
-94 -40 -15 -65 -33 -92 -66 -25 -30 -56 -54 -94 -70 -31 -14 -76 -44 -101
-68 -25 -24 -78 -64 -118 -91 -40 -26 -83 -61 -95 -77 -12 -16 -48 -50 -81
-74 -32 -24 -71 -62 -87 -84 -15 -21 -48 -54 -72 -71 -23 -18 -57 -52 -75 -76
-18 -23 -52 -57 -76 -75 -24 -18 -63 -63 -85 -100 -23 -36 -64 -88 -91 -114
-27 -26 -63 -74 -80 -106 -17 -32 -47 -70 -67 -85 -23 -18 -46 -51 -68 -98
-17 -38 -53 -95 -79 -125 -36 -42 -53 -73 -71 -136 -19 -59 -36 -93 -68 -131
-47 -55 -56 -72 -86 -178 -14 -50 -30 -80 -52 -100 -45 -44 -69 -96 -90 -204
-13 -63 -36 -132 -68 -201 -59 -127 -66 -148 -85 -270 -15 -95 -36 -165 -75
-251 -42 -92 -59 -203 -81 -514 -7 -94 -14 -134 -35 -184 -21 -51 -26 -76 -23
-120 3 -37 -4 -98 -21 -176 l-26 -120 0 -515 c0 -515 0 -515 26 -640 17 -81
24 -145 22 -181 -4 -45 1 -68 23 -120 22 -52 28 -87 35 -189 15 -242 49 -443
92 -540 39 -88 55 -147 76 -269 16 -97 28 -131 74 -225 33 -66 62 -141 71
-186 22 -101 33 -126 78 -186 39 -52 41 -58 78 -183 17 -59 31 -84 69 -125 33
-35 56 -73 75 -122 15 -40 36 -80 48 -90 28 -26 72 -92 88 -134 29 -78 43 -99
81 -124 26 -18 49 -46 69 -85 16 -33 45 -72 64 -86 19 -15 49 -48 65 -74 17
-26 49 -62 71 -80 22 -18 59 -58 81 -89 57 -79 104 -127 169 -174 30 -22 87
-72 125 -112 119 -121 179 -173 232 -199 28 -15 65 -44 83 -67 22 -28 54 -51
103 -73 40 -19 96 -55 126 -80 35 -30 76 -54 116 -67 49 -16 72 -32 106 -69
41 -44 54 -52 147 -80 68 -21 114 -42 136 -62 44 -38 103 -64 194 -84 52 -12
92 -29 135 -59 78 -53 102 -61 251 -86 103 -17 136 -28 221 -70 101 -51 150
-63 285 -75 89 -8 209 -32 425 -84 191 -47 212 -49 615 -60 173 -5 361 -15
417 -22 85 -11 130 -11 265 1 90 7 294 17 453 21 446 13 540 21 605 51 57 26
256 66 460 94 142 18 201 35 310 84 61 28 119 45 204 60 125 22 143 28 190 67
46 39 95 59 198 82 59 14 112 32 135 48 21 15 52 36 70 48 17 12 63 32 101 44
50 16 87 37 128 72 42 35 78 56 129 72 57 18 79 31 120 73 33 35 73 62 120 83
42 19 90 51 120 80 28 27 69 58 92 70 23 11 61 44 85 72 24 28 64 62 89 75 30
15 56 38 74 66 15 24 49 58 75 75 27 18 58 50 71 73 14 25 42 53 72 71 26 16
56 44 65 62 9 18 40 55 68 82 28 28 61 69 73 92 11 23 41 59 67 80 28 23 59
64 81 106 20 38 56 90 80 117 24 27 57 77 72 112 19 39 47 80 78 108 43 41 51
56 75 137 22 71 37 102 72 142 31 37 50 73 65 124 35 113 42 128 86 189 41 55
49 75 90 248 9 36 35 97 60 139 25 42 48 96 54 125 49 269 52 279 86 335 35
57 40 76 29 106 -17 44 -142 71 -394 85 -105 5 -213 17 -269 29 -52 12 -129
21 -172 21 -58 0 -89 5 -126 22 -40 18 -75 23 -208 29 -406 18 -614 30 -694
39 -47 5 -127 10 -176 10 -62 0 -112 6 -160 21 -52 15 -104 22 -201 24 -114 2
-140 6 -197 29 -55 22 -81 26 -164 26 -54 0 -141 5 -193 10 -52 4 -180 10
-283 12 l-189 3 -28 -32 c-22 -24 -30 -45 -34 -90 -14 -129 -35 -204 -80 -280
-30 -51 -51 -103 -66 -166 -27 -110 -32 -120 -81 -174 -28 -31 -44 -63 -65
-130 -31 -101 -39 -116 -87 -149 -22 -15 -45 -45 -62 -79 -19 -40 -40 -66 -75
-91 -27 -20 -60 -53 -72 -75 -13 -24 -42 -52 -73 -71 -27 -17 -66 -49 -86 -72
-22 -24 -57 -49 -85 -60 -27 -10 -74 -38 -104 -61 -77 -59 -101 -70 -220 -95
-58 -12 -143 -34 -190 -50 -47 -16 -115 -31 -151 -34 -36 -4 -88 -14 -114 -22
-70 -24 -234 -15 -345 19 -86 27 -262 67 -380 88 -84 14 -124 31 -171 73 -21
19 -73 51 -116 71 -51 24 -97 54 -133 89 -30 30 -74 65 -97 80 -23 14 -50 38
-60 53 -10 15 -48 57 -85 94 -50 50 -77 87 -101 141 -20 42 -53 92 -78 119
-36 36 -49 61 -67 120 -11 41 -44 118 -71 171 -48 94 -58 129 -96 328 -9 47
-31 119 -49 160 -43 97 -65 217 -77 410 -5 85 -13 207 -18 270 -6 63 -10 340
-10 615 -1 401 2 517 14 585 8 47 15 128 15 181 0 115 27 255 81 428 22 68 46
169 55 225 21 136 38 187 84 242 28 34 47 75 70 145 25 77 41 110 75 151 26
30 55 80 71 122 18 47 39 81 61 101 67 58 88 81 104 112 10 17 42 47 72 66 30
19 64 52 77 72 18 30 41 46 117 81 52 24 114 61 139 82 35 32 63 45 141 66 54
15 142 45 195 66 134 53 180 60 424 60 265 0 341 -10 460 -61 51 -22 137 -49
190 -60 128 -27 136 -31 192 -83 26 -24 72 -55 102 -69 50 -22 110 -75 110
-97 0 -5 24 -25 54 -44 33 -21 63 -50 77 -75 13 -24 43 -54 70 -71 33 -22 55
-47 77 -88 17 -32 49 -72 70 -89 32 -26 45 -47 68 -115 23 -65 40 -95 80 -139
43 -47 54 -67 64 -115 25 -121 42 -170 77 -222 32 -47 63 -131 63 -170 0 -28
32 -80 56 -91 65 -29 267 -7 554 62 218 53 224 54 406 66 77 6 184 17 237 26
54 8 139 22 190 30 50 8 127 29 170 45 71 28 100 33 275 46 331 25 430 39 565
83 129 41 244 58 576 82 239 17 297 37 339 119 42 84 28 155 -63 306 -14 24
-36 91 -50 155 -18 80 -33 125 -53 151 -15 21 -37 51 -48 68 -12 16 -32 70
-44 120 -15 62 -32 103 -54 131 -67 87 -75 102 -97 167 -17 53 -32 76 -70 112
-41 38 -53 58 -75 125 -23 67 -35 88 -80 131 -29 28 -63 72 -75 99 -14 30 -38
59 -65 78 -27 19 -54 51 -74 88 -22 42 -90 118 -258 287 -126 126 -238 232
-249 236 -11 4 -39 29 -62 56 -24 28 -64 61 -91 75 -26 13 -62 43 -80 65 -20
26 -57 54 -99 75 -36 18 -79 47 -96 65 -32 34 -94 69 -160 90 -22 7 -62 34
-90 61 -38 36 -66 52 -120 69 -107 33 -140 49 -176 87 -27 27 -56 41 -146 69
-62 19 -133 49 -160 67 -68 46 -115 64 -223 87 -63 14 -125 35 -186 66 -71 35
-111 49 -185 60 -52 8 -135 21 -184 29 -50 8 -132 30 -183 49 -62 24 -130 41
-209 52 -65 8 -122 18 -126 21 -12 7 -301 23 -592 32 -211 7 -259 11 -305 28
-77 28 -111 30 -315 22z"/>
<path d="M49720 56799 c-163 -5 -243 -11 -290 -24 -45 -12 -135 -20 -290 -26
-480 -19 -655 -36 -805 -80 -167 -49 -250 -69 -361 -84 -131 -19 -216 -43
-272 -79 -53 -33 -115 -53 -217 -72 -107 -19 -153 -36 -219 -81 -44 -30 -85
-45 -223 -82 -23 -6 -65 -32 -95 -56 -41 -36 -72 -52 -148 -75 -82 -25 -102
-36 -140 -75 -35 -35 -60 -50 -124 -71 -44 -15 -89 -37 -100 -49 -12 -12 -34
-36 -49 -53 -16 -18 -49 -41 -75 -52 -25 -11 -72 -45 -103 -75 -32 -30 -62
-55 -68 -55 -6 0 -41 -29 -78 -64 -38 -35 -101 -84 -140 -110 -40 -26 -78 -57
-84 -69 -7 -12 -44 -55 -83 -97 -39 -41 -90 -104 -113 -140 -23 -36 -58 -78
-78 -93 -19 -15 -48 -54 -64 -86 -17 -33 -45 -70 -68 -86 -50 -38 -58 -49 -83
-118 -12 -31 -39 -78 -61 -103 -45 -52 -69 -96 -93 -170 -9 -28 -28 -62 -42
-75 -43 -40 -71 -99 -93 -197 -22 -96 -38 -136 -77 -188 -31 -40 -49 -92 -63
-184 -7 -41 -21 -107 -32 -147 -18 -67 -19 -74 -4 -110 19 -44 58 -89 98 -110
21 -10 45 -13 90 -8 46 5 87 1 156 -15 100 -22 418 -52 541 -51 41 0 116 -4
165 -9 50 -6 162 -15 250 -20 117 -6 176 -14 219 -29 41 -15 84 -21 140 -21
57 0 100 -6 140 -20 58 -21 133 -27 566 -49 91 -5 189 -14 218 -21 29 -6 74
-10 100 -7 66 6 207 -11 272 -34 30 -10 65 -19 78 -19 31 0 74 46 108 116 15
30 42 73 60 97 23 28 45 75 65 142 28 90 37 105 80 145 26 25 58 68 70 95 41
93 270 331 364 378 28 14 68 45 90 69 35 37 54 47 134 72 52 16 117 45 145 64
69 46 83 51 221 74 153 26 578 36 765 19 249 -24 323 -42 417 -101 26 -17 82
-41 123 -53 64 -18 82 -29 125 -73 27 -28 66 -61 86 -73 20 -12 49 -38 65 -59
15 -20 45 -54 66 -74 28 -28 43 -55 59 -110 12 -40 43 -113 68 -162 l46 -89 0
-116 0 -116 -41 -65 c-22 -36 -51 -96 -64 -134 -24 -73 -42 -96 -106 -134 -21
-13 -49 -39 -62 -58 -23 -35 -49 -50 -155 -88 -26 -10 -70 -34 -98 -53 -65
-44 -103 -57 -262 -88 -98 -18 -143 -32 -190 -59 -86 -47 -148 -63 -327 -81
-164 -17 -268 -38 -388 -79 -40 -14 -108 -30 -150 -36 -130 -17 -473 -50 -526
-50 -31 0 -74 -10 -111 -26 -35 -14 -96 -29 -146 -34 -48 -5 -98 -14 -113 -19
-42 -17 -142 -30 -306 -41 -164 -12 -337 -44 -458 -85 -112 -38 -176 -53 -308
-70 -139 -18 -194 -32 -319 -85 -52 -22 -137 -47 -200 -60 -86 -16 -137 -34
-235 -80 -69 -32 -149 -63 -178 -69 -74 -15 -113 -33 -172 -80 -36 -29 -76
-48 -140 -67 -72 -22 -101 -36 -147 -75 -33 -29 -84 -59 -123 -74 -44 -17 -80
-39 -106 -66 -21 -22 -65 -54 -97 -70 -33 -17 -87 -56 -120 -87 -34 -32 -78
-68 -97 -82 -59 -42 -227 -216 -265 -276 -20 -31 -59 -80 -86 -109 -27 -28
-58 -74 -70 -101 -12 -27 -43 -72 -68 -100 -38 -41 -51 -67 -73 -141 -22 -71
-37 -102 -71 -142 -49 -57 -59 -85 -86 -234 -10 -57 -31 -133 -46 -168 -15
-35 -33 -82 -41 -103 -23 -62 -45 -231 -45 -345 0 -58 -7 -141 -14 -185 -19
-105 -19 -370 0 -551 8 -77 15 -173 15 -213 0 -132 17 -209 70 -317 36 -72 55
-129 71 -205 24 -122 37 -154 85 -227 20 -30 50 -88 67 -130 19 -48 44 -89 68
-112 21 -20 50 -62 64 -94 14 -33 47 -82 74 -110 27 -29 69 -83 94 -122 25
-39 65 -85 91 -104 25 -19 58 -52 72 -73 15 -21 48 -54 73 -72 26 -19 61 -55
79 -80 24 -33 55 -58 110 -88 42 -23 97 -62 122 -86 25 -25 70 -56 100 -69 32
-14 74 -45 100 -73 40 -43 55 -51 136 -75 71 -21 101 -36 135 -67 51 -46 63
-51 189 -84 63 -16 115 -38 155 -63 73 -47 91 -53 275 -86 111 -20 165 -35
230 -65 74 -34 103 -41 218 -55 74 -8 212 -15 307 -15 114 0 200 -5 254 -15
68 -13 96 -14 164 -4 45 6 197 15 337 20 322 10 477 24 543 48 29 10 84 31
124 45 39 14 129 35 200 46 143 21 177 31 280 84 40 21 119 49 175 62 117 29
125 33 194 85 28 22 84 50 124 64 46 16 96 43 136 73 35 27 91 59 124 72 47
18 71 34 103 73 23 27 64 60 90 74 65 32 473 440 511 510 17 30 42 58 67 73
25 16 53 46 72 79 38 64 59 81 85 65 32 -21 42 -57 42 -164 0 -143 27 -533 41
-600 6 -30 28 -86 49 -125 21 -38 46 -97 55 -130 41 -150 55 -167 165 -199 50
-15 205 -17 1619 -17 1411 0 1566 2 1588 16 60 40 57 144 -10 285 -72 152 -87
214 -98 395 -5 88 -14 203 -19 255 -7 61 -10 1187 -10 3131 0 2968 0 3038 -20
3140 -10 57 -33 169 -50 249 -17 80 -40 208 -51 285 -18 129 -23 149 -74 255
-32 67 -65 158 -80 219 -30 121 -31 121 -83 185 -22 27 -50 76 -62 110 -16 42
-36 73 -65 101 -25 23 -60 73 -83 120 -23 45 -58 97 -82 120 -23 22 -58 63
-76 92 -19 29 -50 64 -69 79 -20 15 -47 47 -61 70 -28 48 -77 94 -101 94 -8 0
-38 24 -67 53 -29 30 -79 71 -112 92 -32 21 -84 61 -115 89 -35 32 -78 59
-117 74 -45 17 -70 34 -97 67 -33 40 -45 47 -136 75 -79 25 -110 40 -143 70
-44 41 -78 56 -193 90 -39 11 -94 36 -121 55 -68 46 -111 63 -221 86 -52 10
-135 37 -185 58 -140 60 -176 69 -298 82 -62 6 -158 22 -213 35 -55 13 -108
24 -117 24 -9 0 -50 13 -91 30 -107 43 -335 63 -897 79 -226 7 -273 11 -320
28 -77 28 -96 29 -350 22z m1340 -5704 l24 -26 -3 -437 c-2 -435 -5 -469 -41
-592 -25 -86 -46 -173 -71 -300 -34 -168 -38 -180 -78 -223 -48 -53 -55 -67
-76 -147 -20 -79 -41 -113 -85 -144 -19 -13 -47 -48 -64 -81 -20 -38 -46 -70
-74 -89 -24 -17 -56 -51 -72 -75 -16 -24 -51 -58 -78 -75 -27 -17 -64 -48 -82
-69 -18 -21 -60 -52 -92 -68 -33 -17 -78 -47 -101 -68 -51 -47 -83 -64 -166
-87 -36 -10 -84 -33 -109 -52 -65 -50 -92 -58 -283 -92 -94 -17 -213 -40 -263
-51 -81 -19 -113 -20 -291 -16 -164 5 -212 9 -265 26 -36 12 -113 30 -172 41
-119 21 -160 38 -184 75 -9 14 -61 48 -116 77 -96 49 -102 54 -145 122 -25 39
-63 90 -83 112 -49 54 -65 85 -86 170 -9 38 -30 98 -47 134 -45 99 -57 146
-67 260 -13 137 -1 209 51 311 22 45 49 120 61 172 25 113 40 142 90 186 21
18 50 55 63 82 16 30 41 59 70 79 24 17 59 49 77 71 19 24 58 54 93 71 33 17
79 50 101 73 41 42 64 53 195 89 31 9 76 31 100 51 55 43 101 59 255 85 66 11
172 38 235 59 123 42 214 58 544 96 230 27 228 26 365 78 71 27 135 41 249 57
156 21 207 36 273 77 78 48 124 60 239 62 79 1 87 -1 109 -24z"/>
<path d="M21597 56790 c-27 -5 -63 -14 -80 -21 -19 -7 -117 -15 -242 -20 -434
-15 -746 -44 -838 -78 -29 -10 -83 -30 -122 -44 -38 -14 -115 -31 -170 -37
-153 -17 -233 -38 -310 -80 -80 -43 -146 -64 -254 -80 -84 -12 -153 -39 -191
-74 -36 -34 -55 -42 -158 -66 -67 -16 -105 -31 -140 -56 -89 -64 -107 -74
-188 -99 -61 -19 -97 -37 -144 -75 -34 -27 -90 -60 -123 -72 -42 -15 -73 -35
-101 -66 -23 -24 -68 -57 -101 -74 -33 -17 -85 -54 -116 -83 -31 -28 -78 -64
-105 -80 -27 -15 -71 -51 -99 -79 -27 -28 -64 -59 -82 -68 -18 -9 -48 -39 -68
-67 -20 -28 -55 -63 -78 -79 -23 -15 -54 -46 -69 -69 -16 -23 -51 -58 -79 -78
-28 -20 -58 -50 -67 -68 -9 -18 -42 -57 -73 -88 -31 -30 -66 -74 -78 -96 -11
-23 -45 -68 -76 -101 -32 -35 -67 -87 -85 -126 -18 -41 -48 -85 -77 -114 -34
-33 -53 -63 -67 -104 -12 -35 -38 -80 -68 -115 -43 -52 -88 -141 -88 -177 0
-8 -23 -48 -51 -90 -37 -55 -58 -99 -76 -163 -13 -49 -49 -137 -79 -198 -44
-89 -59 -134 -80 -235 -19 -95 -35 -143 -66 -200 -50 -94 -64 -150 -83 -330
-20 -194 -30 -244 -71 -364 -19 -55 -37 -130 -40 -166 -3 -36 -12 -126 -20
-200 -13 -113 -15 -252 -11 -850 5 -849 13 -975 72 -1145 28 -82 43 -154 66
-313 33 -233 37 -249 89 -348 25 -48 42 -96 49 -145 20 -126 42 -199 79 -253
46 -68 60 -102 83 -209 23 -104 26 -111 77 -170 41 -47 52 -69 77 -161 12 -42
28 -71 60 -105 43 -46 67 -91 95 -179 9 -28 31 -60 63 -90 27 -26 59 -70 72
-98 13 -30 38 -63 63 -83 26 -20 56 -59 78 -102 22 -42 67 -101 108 -144 198
-206 426 -434 457 -455 19 -14 62 -50 96 -82 33 -31 88 -70 121 -87 36 -18 73
-47 93 -72 22 -29 53 -51 96 -71 35 -15 83 -48 108 -72 32 -32 67 -53 127 -75
50 -19 97 -46 118 -65 45 -43 63 -52 171 -86 69 -21 100 -37 133 -68 45 -42
87 -58 209 -82 39 -8 79 -26 120 -54 77 -53 101 -61 251 -87 94 -15 142 -30
216 -64 108 -50 131 -56 325 -84 77 -12 177 -30 223 -41 46 -11 104 -20 130
-20 28 0 71 -11 107 -27 73 -31 161 -39 610 -52 171 -5 328 -14 350 -20 52
-14 318 -14 370 0 22 6 180 15 350 20 428 12 542 21 655 52 158 42 323 77 437
92 158 20 197 31 303 80 76 35 121 49 220 65 126 22 198 46 235 79 34 31 79
50 173 70 104 23 135 37 177 80 21 23 53 39 115 58 105 32 131 45 178 87 20
19 73 48 117 67 50 20 97 49 126 76 25 23 74 55 110 71 43 20 75 43 97 71 20
24 57 54 92 71 33 16 87 56 122 88 35 32 84 72 109 90 25 17 61 51 80 75 18
24 51 57 72 73 22 16 54 48 72 72 19 24 56 61 84 83 28 23 51 44 51 49 0 4 37
48 83 96 45 49 100 117 120 151 21 34 51 72 67 83 16 11 42 50 60 86 18 40 48
82 75 106 32 29 52 60 75 118 18 45 50 99 76 130 34 40 50 71 70 138 14 48 38
102 53 121 59 76 72 99 92 166 12 39 43 114 70 167 46 89 67 157 99 312 7 32
28 88 47 125 52 98 60 128 83 289 30 218 65 389 96 462 30 74 38 152 56 550
20 461 12 1095 -21 1515 -8 114 -57 346 -96 454 -8 24 -22 99 -29 166 -18 146
-37 226 -78 314 -46 102 -57 138 -74 241 -17 103 -35 149 -88 223 -24 33 -40
70 -52 125 -22 102 -33 128 -87 198 -33 43 -52 83 -71 146 -21 70 -36 98 -76
145 -32 38 -57 79 -70 119 -15 43 -33 72 -66 105 -25 24 -59 70 -75 102 -16
31 -52 82 -79 112 -27 30 -63 82 -80 115 -21 42 -44 71 -75 92 -24 17 -57 52
-73 78 -16 26 -49 60 -72 76 -24 16 -58 49 -75 74 -17 24 -51 58 -75 75 -25
17 -58 51 -74 74 -16 24 -49 56 -75 71 -25 16 -61 49 -78 74 -22 32 -50 54
-93 76 -33 17 -85 53 -115 80 -30 27 -81 63 -112 79 -32 16 -78 50 -102 75
-33 33 -62 51 -105 66 -40 13 -81 38 -119 70 -47 40 -75 55 -145 76 -63 19
-103 38 -146 71 -70 54 -96 65 -198 87 -55 12 -92 28 -125 52 -74 53 -120 71
-223 88 -128 21 -152 29 -230 76 -85 51 -101 56 -273 75 -134 16 -174 26 -329
83 -96 36 -391 65 -843 81 -161 6 -222 12 -260 26 -42 15 -90 19 -295 21 -135
1 -267 -1 -293 -6z m670 -2478 c40 -18 143 -50 231 -71 177 -43 187 -47 254
-102 26 -22 75 -52 110 -68 37 -16 79 -45 101 -69 20 -23 57 -53 82 -67 27
-16 56 -45 74 -75 17 -27 40 -54 53 -61 40 -20 68 -52 89 -99 11 -25 42 -67
69 -95 40 -41 55 -67 81 -140 19 -55 48 -112 74 -147 30 -40 47 -77 59 -125
10 -37 24 -95 32 -128 9 -33 30 -87 49 -120 57 -102 75 -196 94 -480 7 -96 14
-133 36 -185 23 -54 26 -73 21 -119 -5 -39 1 -87 20 -180 26 -123 27 -135 26
-486 0 -352 0 -363 -27 -484 -19 -90 -24 -137 -20 -175 5 -36 2 -64 -10 -96
-36 -97 -44 -141 -60 -311 -18 -208 -32 -265 -84 -362 -28 -51 -46 -103 -61
-177 -25 -118 -37 -147 -90 -207 -23 -27 -43 -64 -55 -105 -26 -87 -47 -127
-90 -168 -20 -19 -49 -60 -65 -90 -28 -56 -52 -82 -103 -114 -16 -9 -40 -38
-55 -63 -20 -33 -41 -52 -84 -74 -32 -16 -81 -50 -110 -76 -29 -25 -90 -64
-136 -85 -47 -21 -101 -52 -121 -68 -48 -39 -98 -55 -209 -70 -103 -13 -172
-29 -252 -58 -52 -18 -70 -19 -335 -11 -231 6 -294 11 -359 28 -44 11 -129 28
-190 37 -132 19 -163 31 -223 84 -33 29 -67 46 -128 65 -68 21 -93 34 -144 80
-34 30 -86 66 -115 80 -42 20 -61 36 -81 71 -15 25 -47 60 -71 77 -30 21 -54
51 -78 96 -19 36 -53 86 -76 111 -47 51 -73 96 -89 157 -6 23 -32 65 -57 95
-46 54 -54 75 -88 228 -9 41 -35 117 -57 168 -52 123 -65 178 -83 352 -20 190
-41 340 -60 420 -9 39 -16 112 -16 180 0 89 -6 138 -25 215 -33 132 -36 360
-6 476 27 109 31 139 35 304 3 113 11 177 29 260 29 125 33 157 47 344 11 137
34 231 70 281 28 40 47 95 71 205 24 113 43 157 88 199 21 20 39 55 56 109 26
81 63 145 105 182 12 11 37 49 56 85 19 38 50 79 74 98 22 18 49 51 60 73 14
26 34 46 63 60 23 11 67 47 97 79 41 44 66 61 100 70 62 17 118 46 163 87 46
41 57 46 196 77 60 13 138 37 173 51 161 69 132 65 483 62 l320 -2 72 -33z"/>
<path d="M39945 56548 c-43 -15 -65 -37 -89 -88 l-21 -45 -3 -4875 c-1 -2681
0 -4890 3 -4908 7 -37 64 -106 107 -128 24 -13 237 -15 1588 -15 1166 0 1566
3 1582 12 34 17 78 60 94 91 12 24 14 703 14 4920 0 3129 -3 4905 -10 4927
-15 53 -38 81 -83 102 -41 18 -92 19 -1597 18 -1060 0 -1565 -4 -1585 -11z"/>
<path d="M80063 41282 c-29 -4 -71 -55 -78 -95 -3 -18 -5 -531 -3 -1142 3
-1110 3 -1110 24 -1156 12 -26 27 -49 33 -53 6 -4 742 -7 1637 -7 l1627 0 22
21 c12 11 27 38 33 58 15 50 18 2275 3 2314 -24 63 98 58 -1667 61 -885 1
-1619 1 -1631 -1z"/>
<path d="M4136 41095 c-16 -9 -35 -23 -42 -33 -11 -14 -13 -1192 -14 -6663 0
-4432 3 -6664 10 -6700 13 -67 37 -101 81 -114 23 -7 1730 -8 5079 -5 4458 4
5048 7 5075 20 17 8 39 33 50 55 20 39 20 60 20 1375 0 1486 5 1388 -67 1427
-32 17 -166 18 -3273 23 l-3240 5 -38 23 c-20 13 -42 33 -48 43 -7 13 -10 428
-10 1281 l0 1261 27 28 c61 64 -185 59 3146 59 1995 0 3034 3 3047 9 10 6 27
27 37 48 18 36 19 88 22 1268 3 1356 7 1270 -58 1308 -26 16 -239 17 -3064 17
-2969 0 -3038 0 -3074 19 -37 19 -51 38 -72 95 -8 20 -11 388 -11 1169 l0
1139 22 24 c55 59 -192 54 3324 57 3198 2 3220 2 3260 22 74 37 70 -54 73
1392 l3 1291 -23 26 c-16 18 -40 29 -77 36 -35 7 -1788 10 -5095 10 -4484 0
-5044 -2 -5070 -15z"/>
<path d="M20308 37885 c-3 -3 -108 -10 -234 -16 -395 -17 -449 -23 -539 -57
-86 -32 -276 -75 -415 -92 -126 -16 -197 -35 -288 -75 -45 -20 -112 -43 -150
-51 -134 -31 -200 -54 -248 -87 -57 -39 -114 -61 -199 -78 -83 -16 -119 -32
-171 -78 -32 -28 -68 -46 -132 -66 -73 -24 -94 -35 -134 -76 -28 -28 -66 -54
-95 -65 -104 -38 -139 -56 -167 -91 -17 -21 -55 -48 -90 -64 -34 -15 -77 -44
-96 -64 -19 -21 -64 -57 -100 -80 -36 -24 -87 -64 -115 -90 -27 -26 -75 -64
-106 -85 -30 -21 -67 -56 -82 -78 -14 -22 -46 -54 -71 -72 -24 -18 -58 -52
-75 -76 -18 -24 -52 -58 -77 -76 -26 -18 -61 -58 -82 -93 -20 -33 -62 -88 -93
-121 -32 -34 -67 -82 -80 -105 -12 -24 -45 -66 -73 -94 -35 -33 -56 -64 -64
-93 -7 -23 -33 -65 -57 -93 -46 -51 -83 -116 -104 -180 -7 -20 -33 -59 -59
-86 -41 -43 -51 -63 -79 -154 -18 -57 -44 -122 -58 -143 -47 -69 -75 -135 -96
-224 -11 -48 -31 -105 -44 -127 -52 -85 -75 -143 -89 -232 -19 -120 -32 -166
-66 -233 -55 -111 -72 -187 -94 -440 -11 -124 -19 -169 -41 -223 -24 -58 -27
-77 -21 -128 5 -52 2 -69 -21 -122 -26 -60 -27 -70 -36 -342 -19 -574 -8
-1183 23 -1320 10 -44 21 -108 24 -142 3 -35 17 -91 32 -124 21 -52 29 -96 45
-273 22 -250 28 -277 79 -378 33 -64 45 -103 71 -245 31 -169 38 -190 102
-280 17 -24 33 -68 43 -114 26 -129 34 -148 79 -199 36 -40 50 -68 74 -148 24
-77 40 -108 75 -150 32 -37 52 -74 71 -134 23 -69 35 -90 75 -128 30 -28 59
-69 77 -110 19 -42 42 -75 66 -93 21 -16 51 -57 74 -100 21 -40 61 -94 89
-122 29 -27 64 -70 80 -95 15 -25 50 -67 78 -95 28 -27 59 -64 68 -82 9 -18
40 -47 68 -64 28 -17 62 -49 76 -70 15 -24 46 -51 78 -69 30 -17 70 -51 90
-74 22 -28 68 -62 121 -92 47 -26 97 -63 111 -81 14 -18 53 -47 86 -64 34 -17
76 -48 95 -69 24 -27 60 -48 122 -74 63 -26 99 -48 131 -81 34 -35 60 -50 122
-71 49 -16 98 -41 135 -70 50 -39 130 -74 170 -74 28 0 127 -40 159 -65 53
-40 109 -62 223 -84 57 -12 145 -39 195 -60 128 -54 178 -69 287 -85 169 -25
222 -37 330 -72 118 -38 352 -74 489 -74 47 0 157 -7 245 -15 186 -17 1047
-20 1235 -4 63 5 201 14 305 19 231 12 382 31 455 59 89 35 235 68 392 90 152
22 208 37 263 71 48 30 129 56 252 80 118 24 138 32 197 79 22 17 64 38 95 47
122 34 150 46 199 88 41 35 72 51 151 75 80 25 108 39 147 74 28 25 76 54 112
68 39 15 87 44 123 75 33 29 87 66 119 83 33 18 79 53 102 78 24 25 61 54 84
63 24 10 60 40 85 69 23 29 60 62 81 73 21 12 52 43 69 69 17 26 52 61 78 78
27 18 57 48 70 72 14 24 42 52 72 71 30 18 59 47 75 73 14 24 45 60 70 80 24
20 55 58 68 83 14 26 45 67 71 92 26 25 60 70 76 102 15 31 51 81 78 112 27
31 59 83 72 114 12 31 41 77 64 102 49 51 63 78 94 171 12 37 33 77 47 90 40
37 70 96 99 194 15 51 41 112 61 142 44 64 67 125 88 232 11 54 33 115 61 170
49 96 63 146 100 342 28 153 29 169 14 202 -24 52 -58 61 -264 69 -330 12
-527 27 -624 48 -52 11 -129 20 -171 20 -52 0 -99 7 -141 21 -46 15 -107 24
-214 30 -82 4 -172 11 -200 14 -27 3 -142 10 -255 15 -395 18 -524 28 -575 45
-32 11 -100 19 -190 22 -111 5 -149 10 -185 26 -37 17 -77 22 -215 28 -93 4
-206 11 -250 14 -76 7 -82 6 -109 -16 -24 -21 -29 -36 -42 -128 -10 -73 -22
-117 -39 -145 -59 -101 -74 -139 -98 -254 -20 -97 -32 -131 -54 -158 -59 -73
-73 -99 -95 -168 -18 -56 -33 -81 -70 -117 -25 -25 -60 -74 -77 -107 -22 -43
-43 -69 -70 -87 -22 -13 -54 -45 -71 -69 -17 -25 -50 -59 -74 -76 -24 -16 -59
-48 -77 -71 -22 -28 -54 -51 -95 -70 -34 -16 -84 -47 -110 -70 -59 -51 -86
-63 -200 -88 -49 -10 -126 -35 -171 -55 -46 -20 -108 -41 -138 -47 -33 -6
-173 -9 -338 -7 l-282 3 -115 46 c-63 26 -160 57 -215 69 -116 26 -124 29
-190 85 -27 24 -79 56 -116 72 -38 18 -77 44 -95 65 -16 20 -52 49 -79 66 -33
20 -60 47 -75 74 -13 24 -44 61 -68 83 -29 25 -56 64 -75 105 -16 36 -48 88
-72 115 -49 58 -65 88 -90 165 -10 30 -34 78 -54 105 -51 68 -56 83 -86 239
-16 88 -38 165 -60 215 -49 111 -62 172 -75 334 -6 78 -15 175 -20 215 -6 40
-10 117 -10 170 0 64 -9 137 -25 217 -23 111 -25 140 -25 402 0 272 1 286 25
369 21 74 25 107 25 228 0 77 5 159 10 181 5 22 14 103 20 180 13 168 29 244
74 344 19 42 42 117 51 166 34 187 42 214 90 277 27 36 51 83 61 117 30 110
36 122 81 174 25 28 61 85 80 124 25 54 45 81 77 105 24 18 59 56 78 83 18 28
49 59 68 70 19 11 57 43 85 71 56 57 80 71 176 103 41 13 77 33 95 52 43 46
89 65 205 88 244 48 307 63 364 88 97 42 216 44 380 4 72 -17 168 -42 215 -56
47 -14 117 -29 155 -35 113 -17 141 -28 196 -75 31 -27 86 -59 133 -78 67 -27
85 -39 112 -78 19 -25 56 -60 83 -77 27 -17 61 -49 76 -71 14 -23 48 -58 76
-77 39 -29 56 -51 79 -101 16 -36 52 -89 79 -119 38 -41 56 -72 73 -126 14
-44 36 -86 59 -112 50 -57 63 -87 88 -198 15 -62 34 -116 56 -152 18 -30 40
-77 49 -103 22 -66 61 -121 91 -129 14 -3 42 -3 63 0 20 3 101 10 178 15 169
12 208 18 474 82 144 34 242 52 330 59 69 5 150 11 180 14 148 11 388 56 462
85 64 26 100 33 210 41 73 6 187 17 253 25 66 8 152 17 191 20 43 3 117 20
190 44 91 30 152 43 259 55 173 18 341 34 418 39 72 5 97 26 104 89 8 65 -13
145 -53 210 -25 41 -45 97 -69 193 -38 150 -34 142 -86 207 -28 36 -42 68 -59
140 -27 110 -32 121 -79 173 -25 27 -47 70 -70 132 -26 74 -42 103 -80 142
-29 30 -56 71 -69 106 -12 32 -43 80 -68 108 -25 28 -64 84 -86 124 -22 41
-56 86 -78 103 -21 17 -52 54 -69 84 -16 29 -45 65 -63 79 -18 15 -49 50 -68
79 -19 29 -54 65 -77 80 -23 16 -57 50 -77 78 -20 27 -53 61 -75 74 -21 14
-52 44 -67 67 -17 26 -52 56 -85 75 -31 19 -67 50 -81 71 -16 24 -46 49 -83
68 -31 17 -70 47 -87 67 -20 26 -56 50 -113 77 -54 26 -99 57 -131 89 -38 38
-64 54 -118 72 -42 14 -88 39 -121 65 -60 49 -90 66 -161 89 -28 9 -62 28 -75
42 -40 43 -82 63 -180 85 -97 22 -152 45 -205 85 -43 33 -100 51 -218 70 -106
17 -158 34 -216 69 -64 39 -121 56 -261 75 -76 11 -148 22 -161 24 -13 3 -108
26 -211 51 -217 52 -293 62 -587 77 -232 12 -1182 22 -1192 13z"/>
<path d="M31658 37885 c-3 -3 -111 -10 -239 -16 -384 -16 -456 -23 -522 -53
-59 -26 -298 -75 -467 -96 -133 -16 -179 -29 -267 -75 -45 -24 -108 -48 -140
-54 -149 -29 -206 -47 -318 -101 -66 -32 -153 -66 -193 -75 -40 -10 -88 -28
-107 -41 -19 -13 -51 -35 -71 -49 -20 -14 -68 -34 -106 -46 -43 -12 -83 -33
-106 -53 -60 -52 -93 -72 -163 -95 -49 -16 -76 -33 -110 -67 -24 -25 -70 -59
-102 -75 -31 -16 -82 -52 -112 -79 -30 -27 -82 -63 -115 -80 -43 -21 -71 -44
-93 -76 -17 -24 -50 -56 -74 -69 -23 -14 -59 -46 -79 -71 -21 -25 -59 -57 -86
-70 -35 -18 -57 -39 -79 -74 -17 -27 -45 -58 -64 -70 -18 -11 -47 -45 -63 -74
-19 -33 -50 -67 -81 -89 -32 -23 -59 -54 -75 -84 -13 -27 -43 -66 -66 -88 -24
-23 -59 -74 -81 -119 -24 -48 -57 -97 -86 -125 -33 -31 -54 -63 -66 -99 -11
-33 -33 -68 -58 -92 -43 -41 -68 -91 -94 -187 -12 -43 -30 -77 -60 -112 -43
-51 -61 -88 -89 -192 -9 -30 -27 -71 -40 -90 -60 -82 -75 -117 -95 -219 -15
-73 -35 -132 -66 -195 -55 -113 -61 -133 -80 -280 -19 -147 -26 -177 -75 -335
-45 -142 -70 -280 -70 -390 0 -41 -7 -138 -15 -215 -8 -77 -15 -223 -15 -323
0 -150 -4 -198 -20 -262 -25 -97 -41 -276 -29 -327 4 -22 17 -59 28 -84 19
-40 21 -65 21 -284 0 -132 5 -260 11 -285 6 -25 12 -99 14 -165 5 -193 36
-374 94 -535 17 -49 38 -144 50 -224 18 -119 29 -160 76 -275 30 -75 64 -178
75 -229 21 -98 40 -140 89 -207 20 -26 40 -77 59 -148 24 -90 36 -115 65 -145
41 -43 56 -73 87 -165 16 -50 34 -80 66 -113 26 -26 59 -76 78 -117 19 -40 50
-90 70 -112 20 -22 53 -72 72 -112 24 -50 49 -84 83 -112 27 -23 58 -60 69
-84 11 -24 41 -60 67 -81 25 -21 57 -56 71 -77 13 -22 46 -55 72 -73 26 -19
61 -55 79 -80 18 -25 49 -56 71 -70 21 -13 55 -47 75 -75 24 -33 54 -59 85
-75 30 -15 59 -40 75 -64 17 -27 47 -52 86 -72 34 -18 72 -47 85 -65 15 -20
61 -51 116 -79 57 -30 106 -64 131 -91 33 -35 56 -49 120 -70 43 -15 81 -31
85 -36 18 -30 112 -90 170 -109 37 -13 83 -37 103 -55 50 -45 82 -59 189 -84
99 -22 132 -36 195 -82 46 -34 100 -50 240 -74 78 -14 119 -27 192 -65 64 -33
115 -51 162 -59 37 -6 129 -20 203 -32 74 -11 180 -36 236 -54 112 -38 354
-75 488 -75 45 0 153 -7 241 -15 190 -17 1250 -21 1325 -4 25 5 126 14 225 19
326 18 373 24 450 57 93 40 180 60 360 83 203 25 236 34 340 86 69 34 119 51
213 69 124 25 162 39 218 81 17 13 86 41 153 63 76 25 147 55 185 80 33 22 99
56 145 75 48 20 100 51 120 70 20 19 60 44 89 55 86 34 129 59 167 97 19 19
64 48 98 63 43 19 74 42 96 70 18 23 52 51 74 63 23 11 66 44 97 73 30 29 81
69 113 90 89 56 397 369 440 447 20 34 57 83 82 108 25 25 60 70 76 100 18 32
46 66 69 82 29 20 48 46 69 93 17 37 50 89 75 116 28 31 54 76 72 121 18 48
43 89 72 120 35 38 50 65 72 136 31 99 51 142 75 162 28 23 52 82 79 190 18
75 36 119 60 155 50 73 62 107 90 258 17 93 36 164 61 222 53 124 63 168 85
392 16 167 24 213 46 265 16 37 29 95 34 143 5 44 14 96 20 115 29 83 42 855
24 1345 -10 249 -11 263 -37 322 -15 34 -27 81 -27 103 0 23 -11 90 -25 149
-13 58 -31 181 -40 271 -21 219 -30 261 -77 351 -32 62 -44 100 -64 215 -29
165 -38 198 -71 242 -37 49 -70 130 -83 199 -15 84 -32 123 -79 177 -31 35
-47 69 -70 144 -25 79 -39 108 -79 155 -27 32 -55 77 -62 100 -18 63 -45 110
-91 163 -23 27 -54 76 -69 110 -17 36 -45 77 -70 100 -23 22 -51 56 -62 77
-10 21 -45 65 -76 97 -147 152 -197 211 -240 284 -45 76 -51 81 -134 128 -64
36 -96 61 -122 97 -19 26 -53 60 -73 74 -21 15 -56 45 -77 67 -21 23 -59 52
-85 64 -25 13 -63 43 -85 66 -23 25 -64 54 -104 71 -35 16 -88 51 -117 78 -35
31 -75 56 -117 71 -44 16 -80 39 -119 76 -43 41 -70 56 -115 69 -110 31 -119
35 -179 80 -41 30 -80 49 -125 61 -121 30 -159 45 -197 76 -54 44 -86 55 -219
78 -136 23 -162 32 -223 73 -62 42 -111 54 -321 81 -145 19 -202 31 -263 55
-106 42 -367 80 -652 93 -243 12 -1218 22 -1227 13z m603 -2414 c41 -10 101
-22 134 -26 33 -3 101 -17 150 -31 50 -13 138 -32 196 -43 117 -21 154 -36
215 -90 26 -23 68 -45 113 -59 55 -18 84 -35 129 -76 31 -29 83 -71 114 -94
32 -23 76 -66 98 -95 22 -30 58 -68 80 -86 28 -22 52 -57 79 -114 26 -53 55
-97 85 -124 38 -35 48 -54 70 -126 18 -58 40 -103 70 -144 51 -68 50 -65 76
-213 16 -86 32 -139 66 -211 36 -78 47 -115 58 -200 20 -147 37 -358 43 -539
5 -133 9 -163 29 -212 23 -56 24 -65 24 -351 0 -274 -1 -298 -21 -353 -18 -49
-23 -93 -28 -250 -4 -104 -11 -196 -15 -202 -4 -7 -11 -85 -16 -174 -10 -171
-25 -245 -64 -307 -32 -50 -52 -117 -76 -255 -21 -123 -28 -140 -85 -219 -19
-27 -44 -81 -56 -120 -27 -90 -39 -114 -87 -170 -22 -25 -56 -75 -76 -111 -20
-36 -53 -78 -72 -93 -19 -16 -51 -54 -70 -86 -27 -43 -48 -64 -83 -81 -26 -14
-67 -45 -92 -70 -33 -34 -69 -57 -139 -87 -52 -22 -111 -55 -130 -74 -49 -46
-61 -51 -201 -79 -268 -55 -306 -64 -366 -90 -60 -25 -70 -26 -244 -26 -207 0
-373 23 -476 65 -34 13 -119 36 -188 50 -136 27 -169 40 -229 91 -21 18 -70
45 -109 60 -56 22 -75 35 -99 69 -18 26 -51 54 -82 70 -65 35 -188 160 -221
224 -14 28 -41 63 -61 78 -24 18 -48 52 -69 99 -18 38 -51 92 -74 118 -53 61
-56 67 -80 166 -12 47 -44 130 -72 186 -40 80 -53 119 -64 190 -61 402 -72
457 -108 543 -30 75 -30 79 -28 227 1 100 -4 181 -14 239 -18 102 -20 498 -4
660 5 55 13 186 18 290 7 176 10 196 39 280 42 121 57 191 81 380 25 193 30
210 80 294 42 70 53 101 71 196 15 73 32 107 79 161 20 23 51 78 69 122 25 62
42 89 73 113 22 17 49 50 61 73 25 50 54 83 91 102 15 8 41 37 58 64 17 27 47
59 67 71 20 12 62 46 92 74 38 36 72 57 110 70 78 25 121 49 154 84 33 34 87
54 196 72 41 6 111 22 154 35 44 13 101 24 128 24 26 0 76 10 109 21 119 41
231 48 340 20z"/>
<path d="M44925 37880 c-16 -4 -78 -8 -136 -9 -59 0 -129 -5 -157 -11 -28 -5
-91 -14 -139 -20 -49 -6 -115 -23 -148 -37 -110 -46 -139 -55 -255 -74 -163
-28 -184 -35 -259 -84 -53 -36 -90 -51 -185 -75 -112 -28 -122 -33 -170 -78
-40 -38 -66 -53 -124 -71 -52 -15 -87 -34 -124 -66 -29 -25 -84 -60 -123 -79
-42 -20 -84 -49 -106 -73 -20 -23 -54 -50 -76 -62 -22 -11 -58 -40 -79 -64
-22 -23 -55 -54 -74 -67 -19 -13 -132 -122 -252 -242 -177 -178 -222 -230
-249 -283 -37 -75 -70 -95 -118 -75 -56 23 -56 29 -52 570 4 525 1 561 -42
608 -30 32 -48 41 -108 52 -31 6 -616 10 -1525 10 -1644 0 -1499 7 -1545 -72
l-24 -43 -3 -4875 c-2 -3356 1 -4897 8 -4945 12 -82 34 -116 81 -130 22 -7
577 -8 1619 -5 1741 5 1628 1 1660 65 13 26 16 369 20 2910 5 2588 8 2896 23
3039 18 174 32 234 82 346 19 41 45 119 59 173 30 113 36 127 87 185 23 26 47
69 59 108 16 48 36 80 75 122 29 31 73 90 99 130 25 39 50 72 55 72 5 0 48 36
94 80 63 60 105 89 161 115 50 24 84 47 102 71 36 46 63 59 175 84 53 11 122
35 159 54 138 72 422 102 726 77 175 -15 244 -31 341 -79 43 -22 92 -42 108
-46 104 -24 137 -39 192 -87 32 -28 90 -66 128 -84 56 -27 74 -41 90 -72 11
-21 45 -63 76 -93 49 -48 60 -66 84 -139 20 -61 39 -96 66 -126 50 -55 63 -87
88 -225 11 -63 39 -169 61 -235 22 -66 43 -142 46 -170 3 -27 6 -1425 7 -3105
2 -3334 -2 -3108 57 -3152 24 -18 80 -18 1659 -19 1312 0 1636 3 1649 13 8 7
22 29 31 48 15 32 16 337 19 3305 2 2416 0 3296 -9 3370 -6 55 -15 206 -19
335 -7 203 -11 243 -29 295 -30 82 -57 215 -91 445 -27 187 -30 198 -73 281
-33 62 -52 116 -68 190 -23 111 -45 163 -90 219 -16 19 -42 75 -59 125 -24 71
-42 105 -80 150 -27 32 -55 75 -61 94 -20 60 -49 111 -88 154 -21 23 -59 74
-85 114 -25 39 -59 81 -74 92 -16 11 -43 47 -61 80 -24 45 -43 67 -81 90 -27
17 -56 43 -64 58 -19 37 -52 66 -103 92 -23 11 -57 39 -75 61 -22 27 -62 56
-118 85 -50 25 -103 62 -129 89 -33 33 -62 51 -105 66 -62 20 -83 32 -168 94
-35 25 -72 40 -142 56 -56 13 -109 31 -128 45 -92 67 -117 77 -255 101 -160
28 -159 28 -241 66 -77 36 -240 65 -457 80 -185 12 -979 19 -1020 8z"/>
<path d="M54967 37884 c-4 -5 -108 -11 -230 -15 -294 -10 -536 -44 -662 -94
-64 -25 -179 -47 -335 -64 -83 -9 -108 -17 -195 -60 -92 -46 -209 -80 -277
-81 -40 -1 -124 -35 -180 -73 -34 -23 -87 -45 -147 -62 -100 -28 -145 -48
-200 -89 -19 -14 -70 -37 -115 -52 -106 -35 -131 -48 -175 -93 -24 -25 -62
-47 -110 -65 -49 -19 -92 -46 -133 -82 -38 -32 -85 -62 -121 -75 -42 -16 -69
-34 -94 -65 -20 -23 -58 -54 -84 -69 -26 -14 -64 -44 -83 -67 -20 -23 -53 -53
-74 -67 -53 -36 -506 -491 -525 -527 -8 -16 -34 -44 -57 -62 -24 -20 -52 -56
-66 -87 -14 -29 -45 -71 -69 -93 -27 -25 -56 -66 -78 -113 -19 -41 -53 -94
-76 -119 -35 -39 -81 -129 -81 -160 0 -6 -25 -37 -55 -70 -41 -45 -58 -72 -70
-117 -34 -120 -48 -156 -75 -186 -41 -48 -61 -93 -87 -197 -13 -53 -43 -135
-68 -185 -43 -86 -63 -154 -99 -338 -10 -49 -27 -98 -46 -129 -35 -57 -54
-131 -69 -278 -15 -138 -37 -286 -67 -441 -13 -69 -24 -141 -24 -160 0 -20 -9
-69 -20 -110 -18 -70 -20 -109 -20 -710 0 -684 -2 -659 55 -909 21 -94 38
-216 75 -534 12 -98 32 -169 84 -292 14 -34 35 -117 46 -185 26 -154 37 -188
88 -267 29 -46 46 -88 62 -155 28 -118 43 -154 84 -197 43 -45 49 -59 71 -150
22 -93 27 -104 80 -161 23 -25 48 -63 55 -85 20 -62 46 -109 89 -158 22 -25
49 -72 61 -103 25 -69 33 -80 83 -118 23 -16 51 -53 68 -86 16 -32 43 -69 60
-81 17 -13 54 -57 82 -98 28 -41 83 -110 124 -152 40 -43 73 -82 73 -87 0 -5
25 -27 54 -50 30 -22 68 -60 84 -83 21 -31 53 -56 114 -90 55 -31 98 -63 122
-93 21 -25 56 -55 79 -66 23 -12 65 -45 92 -73 32 -33 66 -57 94 -66 25 -8 70
-36 100 -63 31 -26 97 -67 146 -91 50 -24 103 -58 120 -75 21 -23 52 -39 115
-57 86 -27 160 -61 160 -76 0 -19 83 -59 163 -78 100 -23 118 -31 166 -72 43
-38 62 -45 206 -74 89 -19 142 -36 205 -68 101 -51 136 -60 340 -87 193 -25
263 -41 353 -80 79 -35 139 -43 467 -59 102 -5 237 -14 300 -19 188 -16 1048
-13 1235 4 88 8 199 15 246 15 135 0 482 53 559 85 72 29 161 49 260 60 103
11 191 34 245 64 65 36 93 45 259 81 118 25 148 36 200 69 76 50 118 68 204
86 95 20 118 30 170 75 30 27 67 47 111 60 75 24 135 57 170 94 13 14 56 37
95 52 54 21 82 39 116 75 34 37 65 57 131 84 67 28 93 45 122 80 21 24 59 57
85 71 26 15 64 47 86 71 21 24 56 53 78 64 25 13 51 38 70 69 19 31 48 60 75
76 27 16 56 44 74 75 19 29 46 57 71 71 22 13 55 44 72 69 17 26 51 62 76 80
26 20 54 53 66 78 12 24 44 65 71 90 27 25 62 70 77 100 14 30 49 78 76 108
32 35 57 75 72 116 15 42 40 81 74 118 44 48 56 71 78 142 20 65 37 98 70 137
33 39 49 71 70 138 26 85 41 120 105 234 20 36 39 92 52 155 13 66 34 128 64
188 54 109 60 131 80 264 20 131 32 182 62 250 46 107 59 183 88 544 8 100 15
224 15 276 0 66 7 124 26 198 24 99 25 118 28 431 2 309 1 333 -21 442 -14 65
-28 185 -33 275 -5 88 -14 234 -19 325 -13 204 -30 299 -85 465 -30 88 -49
170 -60 252 -18 132 -31 175 -96 328 -23 54 -51 141 -61 193 -21 105 -28 122
-76 175 -40 45 -50 68 -68 164 -16 84 -25 103 -75 160 -22 25 -49 74 -65 118
-19 54 -41 91 -80 134 -33 38 -59 78 -70 111 -11 32 -36 73 -64 104 -26 28
-64 83 -85 121 -21 39 -58 90 -83 115 -24 25 -56 66 -71 92 -15 25 -47 61 -72
80 -26 19 -56 55 -71 83 -16 30 -43 61 -68 79 -23 15 -53 45 -66 66 -13 20
-38 48 -56 61 -18 13 -58 49 -88 80 -31 31 -76 67 -101 82 -26 14 -56 43 -70
67 -18 29 -40 48 -79 67 -30 14 -78 47 -106 74 -28 26 -85 64 -125 84 -45 22
-89 52 -110 76 -24 27 -57 48 -108 69 -43 17 -95 49 -124 74 -40 35 -71 51
-148 75 -65 21 -110 42 -136 65 -53 45 -89 62 -170 81 -38 8 -121 40 -185 71
-89 42 -143 60 -235 79 -88 18 -143 37 -209 70 -100 49 -127 56 -300 80 -192
25 -371 63 -438 92 -67 28 -113 33 -492 54 -236 13 -1258 23 -1268 13z m736
-2427 c37 -17 75 -27 106 -27 26 0 84 -11 128 -24 45 -13 116 -29 159 -36 110
-16 167 -36 216 -77 45 -37 111 -73 170 -92 24 -8 52 -29 75 -57 20 -25 54
-54 75 -65 20 -10 56 -44 78 -74 23 -30 59 -67 81 -80 22 -14 53 -48 70 -75
17 -27 48 -63 69 -80 29 -23 45 -48 65 -101 15 -39 42 -89 61 -112 48 -60 64
-91 86 -170 10 -39 42 -114 69 -167 37 -71 54 -119 65 -181 39 -210 68 -350
101 -477 48 -186 57 -339 57 -942 0 -647 -21 -908 -81 -1050 -26 -61 -40 -118
-57 -242 -17 -121 -34 -176 -81 -262 -19 -33 -46 -106 -61 -161 -30 -116 -32
-119 -89 -194 -24 -31 -51 -81 -62 -111 -13 -39 -33 -69 -69 -105 -29 -27 -60
-65 -69 -84 -20 -40 -203 -226 -231 -235 -11 -3 -36 -26 -57 -50 -25 -30 -52
-50 -84 -61 -26 -10 -61 -22 -76 -28 -16 -5 -54 -30 -85 -54 -61 -47 -83 -55
-217 -79 -49 -8 -137 -33 -195 -55 -139 -52 -188 -59 -435 -59 -201 0 -212 2
-270 26 -33 13 -100 33 -150 44 -49 11 -115 26 -145 34 -30 7 -90 21 -133 31
-60 13 -89 26 -126 56 -27 21 -77 49 -110 63 -74 30 -110 54 -181 123 -30 30
-108 105 -172 167 -101 98 -122 124 -151 187 -21 44 -51 90 -76 113 -34 33
-46 55 -70 135 -22 71 -41 109 -70 144 -47 56 -56 80 -76 212 -21 131 -30 165
-71 258 -21 47 -40 115 -49 172 -26 158 -45 459 -45 705 0 200 -3 246 -20 308
-18 68 -18 75 -3 120 12 36 18 114 24 342 14 519 34 691 98 838 36 82 46 119
66 245 18 114 30 147 77 209 38 50 48 71 79 176 15 52 33 87 61 119 22 25 52
73 68 107 16 34 58 94 94 133 35 39 78 91 95 116 18 27 57 61 94 85 35 22 90
63 121 90 34 30 80 58 116 71 33 12 82 41 110 65 57 49 84 58 225 81 55 9 140
29 188 46 49 17 125 35 170 40 45 5 105 16 132 24 34 10 83 14 155 11 88 -2
114 -7 163 -29z"/>
<path d="M68205 37880 c-16 -4 -78 -8 -136 -9 -59 0 -129 -5 -157 -11 -28 -5
-91 -14 -139 -20 -48 -6 -115 -23 -148 -36 -132 -56 -157 -64 -267 -83 -129
-22 -160 -33 -236 -84 -29 -20 -86 -46 -125 -57 -40 -12 -80 -24 -90 -27 -10
-2 -40 -24 -66 -47 -50 -45 -72 -56 -166 -82 -47 -13 -70 -27 -107 -65 -25
-26 -73 -61 -106 -78 -32 -16 -83 -52 -113 -79 -30 -27 -82 -63 -116 -81 -41
-22 -71 -47 -88 -72 -14 -22 -48 -53 -75 -70 -31 -19 -60 -48 -76 -74 -14 -26
-46 -57 -74 -75 -29 -19 -60 -50 -75 -76 -15 -25 -45 -58 -68 -75 -24 -17 -52
-50 -65 -77 -31 -61 -206 -232 -238 -232 -16 0 -29 10 -40 32 -15 28 -17 92
-18 589 l-1 557 -30 44 c-21 29 -42 46 -65 53 -23 7 -545 8 -1520 5 l-1485 -5
-50 -25 c-34 -17 -56 -36 -68 -60 -16 -33 -17 -285 -15 -4960 3 -4585 4 -4927
20 -4956 34 -63 -78 -59 1658 -64 1042 -3 1597 -2 1619 5 46 13 69 48 81 120
6 38 10 1084 10 2880 l0 2820 26 60 c14 33 29 96 34 140 5 44 18 118 29 165
11 47 27 128 36 180 21 124 30 150 71 210 19 28 46 87 60 133 39 125 44 136
81 170 19 18 48 59 65 92 28 55 83 120 181 214 22 20 64 62 95 93 32 31 75 65
97 76 22 11 58 39 79 61 33 34 58 47 150 77 61 21 138 52 172 71 92 50 218 68
479 66 275 -2 410 -23 489 -78 29 -20 80 -45 114 -55 82 -26 118 -45 172 -93
25 -21 71 -52 102 -68 52 -26 61 -36 92 -97 19 -37 51 -83 71 -102 44 -42 59
-70 86 -155 12 -41 34 -81 58 -109 22 -25 44 -60 50 -78 12 -41 48 -259 57
-353 3 -38 15 -97 25 -130 19 -58 19 -150 19 -3078 0 -2150 3 -3036 11 -3081
13 -79 36 -118 82 -139 32 -16 159 -17 1607 -17 1711 0 1616 -3 1653 53 39 61
38 4 37 2764 l0 2673 27 62 c27 61 28 69 26 208 -2 87 3 183 11 240 8 52 20
140 26 195 9 77 22 126 55 210 24 61 56 153 71 205 32 113 41 133 88 185 20
22 50 75 67 118 23 56 44 89 76 120 25 23 56 63 69 89 15 29 41 59 69 78 25
17 58 50 72 72 21 31 45 49 101 75 40 19 80 46 88 59 24 36 70 60 167 87 56
16 102 36 125 54 46 37 77 47 226 73 146 25 357 27 501 4 55 -8 126 -19 157
-24 38 -6 73 -20 108 -44 27 -19 76 -42 108 -51 105 -29 147 -48 182 -83 19
-20 59 -51 88 -69 31 -20 65 -53 82 -79 15 -25 48 -60 73 -79 36 -28 50 -48
71 -103 15 -38 42 -87 60 -108 50 -59 57 -75 107 -269 25 -99 58 -207 72 -241
22 -51 28 -85 37 -220 7 -106 11 -1149 13 -3159 2 -2722 3 -3003 18 -3035 9
-19 23 -41 31 -48 13 -10 340 -13 1649 -13 l1634 0 22 25 c12 14 24 45 28 68
11 80 -1 7093 -13 7225 -8 95 -20 149 -51 246 -29 90 -47 173 -66 303 -32 221
-35 232 -89 322 -33 55 -47 91 -56 145 -22 131 -38 174 -85 227 -35 39 -50 68
-71 137 -22 73 -34 97 -74 138 -37 40 -53 68 -74 132 -24 71 -34 88 -75 122
-27 23 -59 63 -74 94 -18 34 -43 64 -71 84 -24 17 -56 50 -72 74 -16 24 -48
56 -71 71 -23 16 -57 50 -76 76 -19 27 -54 61 -78 76 -24 16 -56 46 -71 67
-17 24 -49 49 -87 69 -33 16 -72 45 -87 65 -31 41 -69 62 -165 94 -41 13 -77
33 -95 52 -38 40 -69 56 -181 91 -59 18 -105 40 -127 58 -51 46 -109 67 -245
90 -80 14 -155 34 -209 56 -187 77 -384 97 -992 98 -357 0 -765 -14 -787 -27
-6 -4 -52 -11 -104 -17 -67 -8 -116 -21 -169 -45 -90 -40 -123 -49 -259 -70
-128 -21 -167 -34 -242 -84 -40 -27 -82 -45 -131 -56 -122 -27 -166 -45 -217
-88 -31 -27 -75 -51 -120 -66 -48 -16 -89 -39 -128 -72 -34 -29 -84 -59 -125
-75 -49 -19 -78 -37 -105 -68 -21 -24 -66 -57 -100 -75 -34 -17 -90 -57 -125
-89 -35 -32 -83 -72 -108 -89 -25 -17 -61 -48 -80 -68 -19 -20 -56 -48 -83
-61 -32 -16 -58 -40 -80 -74 -17 -27 -52 -61 -75 -77 -24 -15 -57 -48 -74 -73
-17 -26 -50 -59 -75 -74 -24 -16 -58 -51 -77 -80 -29 -45 -44 -56 -123 -95
-52 -25 -98 -41 -107 -38 -23 9 -53 63 -72 127 -12 40 -28 66 -63 100 -25 25
-59 70 -74 101 -15 31 -53 85 -85 120 -32 35 -69 80 -82 99 -22 32 -95 111
-193 207 -21 21 -66 66 -101 100 -42 42 -89 76 -142 102 -49 24 -95 57 -121
85 -28 30 -59 51 -94 63 -31 11 -75 39 -110 70 -59 52 -81 62 -212 94 -26 6
-74 29 -106 49 -88 57 -90 58 -217 80 -82 15 -145 33 -204 60 -101 45 -202 67
-365 80 -66 5 -181 14 -255 20 -153 11 -759 12 -805 0z"/>
<path d="M89425 37880 c-16 -4 -77 -8 -134 -9 -237 -2 -376 -20 -618 -77 -128
-30 -294 -63 -370 -74 -148 -20 -198 -34 -266 -74 -62 -36 -116 -54 -223 -71
-107 -17 -157 -35 -194 -69 -37 -35 -76 -52 -173 -75 -102 -24 -107 -27 -172
-80 -36 -29 -76 -49 -143 -71 -68 -22 -110 -43 -150 -75 -32 -24 -91 -58 -132
-74 -51 -21 -87 -43 -111 -70 -21 -22 -65 -54 -100 -71 -34 -18 -85 -53 -113
-79 -28 -27 -78 -63 -111 -80 -37 -20 -72 -49 -90 -74 -17 -23 -46 -51 -65
-62 -19 -11 -59 -45 -90 -76 -30 -31 -71 -65 -90 -77 -20 -12 -46 -39 -58 -61
-12 -22 -44 -55 -71 -74 -31 -23 -59 -55 -77 -88 -18 -34 -45 -64 -72 -82 -26
-18 -52 -47 -66 -75 -14 -26 -43 -65 -66 -87 -24 -23 -61 -77 -85 -125 -27
-52 -60 -101 -87 -126 -31 -28 -51 -59 -67 -102 -12 -34 -40 -83 -62 -108 -47
-54 -59 -77 -89 -168 -13 -41 -36 -84 -56 -106 -42 -47 -69 -107 -88 -196 -20
-94 -31 -121 -75 -179 -44 -57 -53 -82 -76 -220 -14 -77 -27 -117 -61 -182
-50 -95 -68 -161 -84 -318 -13 -133 -21 -164 -67 -280 -29 -74 -37 -108 -44
-200 -4 -62 -13 -132 -18 -156 -6 -24 -11 -96 -11 -159 -1 -63 -6 -180 -13
-260 -14 -166 -6 -1084 12 -1380 22 -359 25 -389 59 -466 40 -91 56 -160 82
-357 22 -163 29 -189 78 -297 31 -67 62 -171 82 -275 14 -69 37 -118 84 -179
20 -27 39 -69 50 -111 23 -93 40 -130 85 -189 21 -28 49 -82 61 -121 30 -93
46 -122 90 -171 21 -23 48 -69 60 -102 13 -36 42 -84 72 -119 27 -32 67 -90
89 -130 22 -39 55 -83 74 -97 19 -15 49 -54 67 -87 20 -39 46 -71 70 -86 21
-14 51 -47 68 -74 17 -29 48 -60 75 -77 25 -15 58 -48 74 -73 15 -25 48 -58
73 -74 25 -15 58 -48 73 -73 16 -25 49 -57 77 -74 27 -17 60 -47 73 -67 15
-24 44 -49 84 -70 33 -18 74 -49 91 -69 16 -21 59 -53 94 -72 36 -18 90 -55
120 -81 34 -29 83 -58 127 -74 48 -19 86 -42 115 -70 43 -43 79 -60 186 -90
40 -11 73 -29 106 -58 54 -48 73 -57 190 -88 52 -13 103 -35 134 -56 71 -49
104 -61 231 -84 93 -16 123 -27 178 -60 82 -49 100 -54 279 -80 163 -23 220
-36 370 -84 121 -38 223 -53 475 -66 99 -5 234 -13 300 -18 197 -16 1054 -13
1240 4 88 8 198 15 245 15 120 0 372 36 456 65 103 36 222 62 359 80 154 20
182 28 280 80 56 29 104 46 156 55 166 28 200 39 261 85 52 39 136 75 174 75
33 0 114 36 159 70 63 48 80 56 160 81 46 14 80 34 121 69 35 31 81 59 125 75
49 19 81 40 111 71 23 25 67 56 97 70 30 13 80 48 110 77 31 29 83 69 116 89
34 20 75 55 93 77 18 22 56 54 85 72 28 17 64 49 79 70 16 22 50 53 78 70 34
21 58 46 76 79 15 27 44 63 66 80 21 17 50 50 65 73 14 23 51 69 83 102 31 33
71 88 89 122 18 34 53 80 76 101 24 22 57 67 74 100 17 34 46 75 65 92 34 31
49 60 87 163 14 39 36 73 69 105 40 40 51 60 73 132 20 66 37 97 71 138 46 54
50 64 85 210 14 58 33 102 60 143 44 66 63 117 86 233 11 51 33 111 61 165 31
60 49 110 59 166 15 83 20 212 9 240 -15 39 -62 49 -249 56 -426 16 -557 27
-630 50 -49 16 -91 22 -140 21 -43 -1 -118 8 -190 23 -81 17 -153 25 -220 25
-55 0 -127 5 -160 10 -33 6 -150 13 -259 16 -110 3 -204 8 -209 11 -6 3 -80 9
-166 14 -96 4 -192 15 -248 28 -54 12 -128 21 -176 21 -59 0 -100 6 -142 21
-47 17 -99 23 -240 30 -99 5 -208 12 -241 15 -75 7 -118 -12 -139 -59 -66
-150 -100 -247 -120 -341 -25 -119 -37 -151 -91 -236 -19 -30 -45 -91 -59
-135 -18 -61 -33 -89 -60 -115 -20 -19 -59 -79 -87 -132 -30 -59 -61 -106 -79
-119 -16 -11 -46 -49 -66 -84 -28 -50 -47 -70 -84 -90 -27 -14 -65 -46 -86
-72 -27 -33 -59 -55 -118 -83 -44 -22 -104 -59 -133 -84 -30 -25 -57 -46 -60
-46 -4 0 -64 -13 -134 -30 -79 -18 -157 -43 -205 -67 l-78 -38 -310 0 c-345 1
-294 -7 -545 79 -41 14 -108 35 -148 46 -55 16 -84 31 -116 60 -23 22 -73 53
-110 69 -64 29 -172 114 -234 186 -15 17 -52 55 -83 85 -31 30 -68 75 -82 100
-13 25 -42 59 -64 76 -29 23 -46 50 -67 102 -15 39 -41 88 -58 109 -44 56 -54
79 -83 194 -15 59 -45 141 -69 189 -57 114 -73 184 -96 432 -6 73 -17 127 -35
169 -19 48 -25 80 -25 139 0 59 -6 91 -26 139 l-25 63 4 607 3 606 27 78 c15
43 27 97 27 120 0 23 9 80 20 126 11 46 29 157 41 245 25 203 41 268 83 331
39 60 52 96 67 195 14 92 27 125 69 170 30 32 100 165 100 189 0 6 23 32 51
58 28 27 62 69 75 95 14 29 41 59 68 77 25 17 58 50 73 74 16 23 49 56 75 72
25 17 61 50 79 74 27 35 50 51 107 75 41 17 90 45 110 62 57 48 90 61 212 84
62 12 143 32 179 46 36 14 101 29 146 34 44 5 105 16 135 25 70 21 202 13 298
-17 37 -11 103 -29 147 -38 93 -20 228 -54 301 -75 30 -9 70 -31 96 -55 26
-22 75 -50 114 -65 44 -16 84 -40 109 -65 22 -22 78 -65 125 -97 74 -51 89
-66 125 -130 22 -40 66 -99 97 -132 33 -36 59 -73 63 -93 5 -19 30 -55 62 -89
49 -51 58 -68 87 -161 19 -61 47 -124 68 -155 41 -60 61 -115 82 -225 22 -116
46 -152 120 -183 51 -22 97 -21 331 4 223 25 221 24 325 56 41 12 107 28 145
34 220 36 332 50 435 56 147 8 213 20 289 50 35 15 81 25 109 25 26 0 74 7
106 15 91 24 221 43 336 50 156 9 235 22 455 76 164 40 228 51 355 60 371 26
433 55 410 190 -13 75 -69 319 -76 333 -4 6 -22 34 -41 62 -24 35 -44 89 -67
171 -27 101 -39 129 -74 173 -30 38 -50 78 -69 139 -23 75 -32 92 -75 132 -40
38 -53 59 -75 125 -21 64 -35 88 -76 128 -29 30 -61 74 -77 111 -17 39 -41 72
-62 89 -19 14 -47 48 -62 76 -15 27 -55 80 -89 117 -34 38 -73 84 -87 103 -21
30 -255 266 -470 474 -37 35 -94 78 -129 96 -35 17 -82 52 -105 77 -22 25 -63
56 -91 70 -27 14 -70 46 -95 72 -38 41 -58 52 -130 76 -65 21 -93 36 -120 65
-42 44 -71 60 -167 89 -54 16 -86 33 -123 66 -34 30 -68 49 -105 60 -30 8 -79
22 -107 30 -29 8 -74 28 -100 44 -83 53 -108 62 -225 87 -67 13 -166 44 -236
73 -130 52 -187 66 -307 76 -41 4 -120 17 -175 31 -55 13 -108 24 -118 24 -10
0 -53 14 -95 31 -84 34 -143 41 -512 60 -235 13 -1245 20 -1285 9z"/>
<path d="M80056 37645 c-12 -6 -32 -31 -46 -55 l-25 -45 0 -4930 c0 -5219 -2
-4977 44 -5019 17 -15 150 -17 1652 -17 l1634 0 22 25 c13 16 24 45 28 78 3
29 5 2265 3 4968 -3 4670 -4 4917 -21 4947 -9 18 -26 37 -37 43 -27 14 -3225
19 -3254 5z"/>
<path d="M74885 22421 c-1694 -6 -1610 -3 -1640 -62 -13 -25 -15 -845 -15
-6761 0 -3703 4 -6749 9 -6768 4 -20 13 -45 19 -57 27 -50 -34 -48 1676 -51
1780 -3 1630 -9 1664 66 16 34 17 147 19 1327 2 710 3 1299 3 1309 0 11 19 37
41 58 23 22 54 63 70 91 29 54 102 139 178 211 24 22 58 56 75 74 137 147 177
195 210 249 23 37 61 79 92 104 30 23 54 45 54 50 0 5 29 37 65 72 35 34 75
83 88 107 32 62 73 82 156 77 78 -4 89 -15 127 -130 23 -69 35 -89 79 -132 40
-38 57 -63 71 -108 11 -36 35 -77 61 -109 47 -54 73 -99 93 -161 7 -23 32 -58
60 -84 35 -33 55 -64 75 -114 16 -41 47 -93 75 -125 30 -36 56 -80 70 -122 16
-44 39 -83 70 -117 30 -34 58 -79 76 -125 21 -53 42 -85 76 -118 34 -33 55
-65 73 -113 15 -37 43 -87 63 -111 51 -58 66 -84 86 -144 12 -36 31 -65 70
-101 46 -44 58 -63 82 -135 22 -67 36 -92 75 -130 34 -35 53 -66 70 -115 16
-43 43 -90 79 -134 31 -38 64 -92 75 -121 11 -31 38 -73 65 -103 32 -34 56
-74 76 -124 20 -52 43 -89 76 -124 32 -34 55 -70 70 -111 15 -40 39 -78 70
-111 31 -34 58 -78 82 -135 24 -55 49 -96 75 -121 21 -21 45 -55 51 -76 22
-66 57 -127 100 -173 23 -25 57 -69 76 -98 19 -29 45 -57 59 -62 16 -6 721
-10 1867 -10 1790 -1 1843 0 1868 18 32 24 36 60 14 140 -13 50 -26 72 -56
101 -24 22 -53 66 -74 110 -19 41 -55 96 -80 123 -25 27 -59 79 -76 116 -18
40 -49 85 -77 112 -32 32 -54 67 -73 116 -17 42 -48 93 -78 129 -27 32 -57 80
-65 106 -11 32 -32 61 -65 92 -32 30 -59 68 -79 111 -17 37 -51 90 -76 119
-26 30 -55 79 -70 117 -18 47 -39 80 -75 115 -37 36 -57 68 -77 120 -19 52
-40 84 -78 122 -36 36 -59 70 -73 110 -14 39 -36 73 -66 102 -32 31 -54 67
-77 123 -23 58 -43 90 -76 121 -28 25 -57 67 -75 106 -16 36 -47 84 -69 108
-22 25 -56 77 -76 118 -19 40 -54 94 -77 119 -26 27 -51 68 -64 103 -14 37
-42 82 -78 122 -30 35 -67 89 -80 119 -13 31 -46 78 -72 106 -32 34 -56 73
-71 114 -14 38 -41 83 -68 112 -24 27 -57 79 -74 116 -19 41 -46 81 -71 103
-23 21 -56 68 -78 112 -21 42 -58 99 -83 127 -25 30 -52 76 -63 109 -14 40
-34 72 -74 112 -42 43 -61 73 -80 126 -19 51 -36 79 -69 110 -27 24 -56 67
-76 110 -18 39 -47 84 -65 100 -31 28 -100 155 -100 182 0 7 -26 38 -58 70
-37 37 -63 73 -71 100 -8 23 -36 68 -64 100 -27 32 -66 94 -87 138 -21 44 -53
94 -70 110 -18 17 -48 63 -66 103 -19 40 -54 94 -78 120 -24 26 -60 81 -80
123 -24 51 -49 86 -75 107 -27 22 -46 49 -60 88 -31 82 -44 104 -95 159 -57
62 -69 100 -65 202 4 89 14 106 80 149 20 12 49 42 64 67 16 24 48 56 72 72
24 15 58 48 74 74 17 26 51 60 76 75 30 19 52 44 69 78 17 34 87 112 223 248
160 160 206 212 239 271 26 49 54 83 78 99 21 14 55 47 76 74 21 27 58 63 81
81 24 18 56 50 72 71 16 22 49 56 72 78 24 21 51 52 59 70 9 17 46 60 83 96
36 36 74 78 84 93 10 15 35 38 56 51 21 14 54 47 74 75 20 28 55 63 78 78 25
16 50 45 65 74 13 26 40 60 60 76 20 15 54 51 76 80 21 29 56 64 78 78 21 13
52 44 69 69 17 24 52 59 79 79 30 21 60 55 80 89 20 36 98 122 219 244 103
104 205 216 227 249 39 61 56 79 284 311 71 71 145 155 164 186 20 30 52 65
72 77 20 13 48 43 63 68 16 29 46 58 79 79 65 42 84 75 84 149 0 55 -1 56 -35
71 -30 12 -266 14 -1762 12 l-1728 -3 -58 -21 c-69 -26 -101 -53 -132 -114
-14 -27 -41 -58 -68 -76 -27 -19 -56 -52 -73 -83 -15 -29 -42 -61 -62 -73 -19
-11 -49 -44 -67 -72 -18 -29 -54 -69 -79 -90 -26 -21 -55 -55 -66 -76 -11 -21
-41 -57 -68 -81 -27 -24 -66 -71 -87 -104 -20 -33 -67 -92 -104 -131 -115
-124 -177 -198 -201 -242 -14 -24 -46 -59 -72 -77 -30 -22 -57 -53 -73 -84
-16 -32 -41 -61 -70 -81 -25 -17 -54 -48 -65 -69 -10 -21 -39 -56 -63 -77 -24
-22 -58 -60 -75 -86 -18 -26 -52 -63 -77 -83 -28 -23 -61 -67 -91 -120 -30
-53 -60 -93 -85 -112 -22 -15 -55 -52 -75 -80 -19 -29 -51 -65 -70 -80 -20
-15 -50 -51 -66 -81 -18 -31 -47 -64 -70 -80 -24 -15 -49 -45 -64 -74 -16 -31
-43 -61 -79 -88 -33 -24 -64 -57 -76 -83 -23 -44 -104 -140 -200 -237 -31 -31
-77 -88 -102 -127 -25 -39 -63 -85 -85 -103 -22 -17 -52 -54 -67 -81 -16 -30
-46 -64 -74 -84 -26 -19 -57 -53 -70 -77 -13 -24 -45 -64 -70 -89 -25 -25 -60
-66 -76 -90 -17 -24 -47 -52 -67 -61 -20 -10 -45 -30 -55 -44 -26 -39 -79 -94
-91 -94 -5 0 -19 8 -31 18 l-22 17 1 3558 c0 3181 -1 3560 -15 3587 -19 37
-61 59 -117 63 -24 2 -745 1 -1603 -2z"/>
<path d="M4123 22230 c-18 -11 -35 -30 -38 -42 -3 -13 -4 -3024 -3 -6693 3
-6164 4 -6673 19 -6706 35 -75 -115 -69 1624 -69 1739 0 1589 -6 1624 69 15
33 16 367 18 4295 1 2342 5 4267 8 4277 7 20 46 35 70 25 8 -3 28 -33 44 -66
17 -34 51 -81 79 -108 42 -40 54 -60 77 -130 19 -58 39 -97 68 -131 25 -29 54
-80 70 -124 19 -48 47 -96 78 -133 28 -33 56 -79 65 -108 24 -72 41 -104 86
-159 23 -26 52 -80 68 -121 27 -74 64 -136 80 -136 10 0 59 -100 84 -172 10
-26 35 -64 57 -85 30 -29 48 -62 75 -133 27 -74 45 -105 80 -141 33 -33 50
-62 64 -107 24 -78 41 -108 79 -150 38 -40 58 -78 77 -143 8 -27 35 -73 59
-103 50 -62 65 -90 90 -164 12 -39 31 -67 66 -100 44 -42 53 -57 79 -142 26
-82 35 -101 74 -137 35 -33 49 -56 62 -100 23 -80 39 -110 93 -169 34 -37 52
-69 69 -123 16 -47 38 -90 67 -125 50 -61 66 -90 89 -163 9 -28 34 -71 55 -95
43 -48 61 -81 91 -161 11 -30 38 -75 60 -100 21 -24 48 -67 60 -96 34 -86 67
-145 99 -175 20 -19 39 -55 56 -105 18 -55 39 -92 75 -134 37 -44 55 -76 71
-129 17 -55 33 -83 75 -130 42 -47 58 -76 80 -141 20 -62 36 -91 65 -118 44
-43 64 -78 80 -145 17 -69 33 -97 82 -143 32 -30 48 -56 61 -98 22 -72 55
-129 95 -168 22 -20 39 -53 56 -108 31 -97 34 -102 89 -167 29 -34 53 -76 67
-118 15 -45 33 -76 60 -102 38 -37 56 -70 94 -175 10 -27 38 -70 61 -95 31
-33 51 -69 74 -131 22 -61 45 -102 79 -143 26 -31 54 -76 61 -99 18 -61 43
-106 89 -162 22 -27 48 -72 57 -100 24 -71 48 -116 79 -145 33 -30 57 -76 81
-154 13 -42 33 -76 67 -112 35 -38 54 -72 72 -125 29 -83 39 -101 87 -149 21
-21 46 -64 62 -108 17 -43 46 -93 72 -124 24 -28 50 -71 59 -95 8 -24 22 -64
32 -90 9 -26 33 -65 53 -87 43 -47 60 -78 85 -156 13 -40 33 -69 70 -107 45
-44 55 -61 70 -120 24 -90 37 -115 83 -154 21 -19 51 -51 67 -72 15 -21 36
-42 46 -48 12 -6 725 -9 1950 -9 2193 0 1982 -9 2029 85 l25 50 5 6650 c4
5178 2 6656 -7 6676 -7 15 -29 35 -50 45 -37 18 -92 19 -1558 22 -836 2 -1544
0 -1573 -3 -33 -4 -62 -15 -78 -28 l-25 -22 -2 -4180 c-2 -4158 -2 -4180 -22
-4220 -12 -25 -30 -43 -47 -49 -42 -15 -73 21 -103 117 -32 99 -39 114 -85
158 -20 20 -40 48 -44 63 -19 76 -53 143 -96 191 -33 36 -54 72 -69 117 -14
42 -38 84 -70 122 -32 37 -55 77 -66 114 -24 78 -37 100 -87 153 -32 33 -50
65 -66 114 -30 88 -37 101 -87 156 -30 32 -47 63 -59 105 -27 96 -38 117 -87
164 -35 34 -51 61 -68 112 -12 37 -37 85 -54 108 -68 88 -76 103 -98 167 -14
42 -36 82 -59 107 -43 47 -73 102 -90 166 -9 33 -25 58 -62 91 -44 41 -52 56
-78 139 -26 82 -34 98 -78 139 -44 41 -53 56 -76 133 -22 73 -34 94 -75 137
-27 28 -52 62 -55 76 -18 71 -52 140 -91 187 -26 30 -56 81 -71 122 -18 46
-43 87 -71 117 -32 34 -50 67 -70 124 -19 58 -38 91 -73 130 -29 32 -56 76
-69 111 -40 108 -45 118 -92 170 -32 36 -53 72 -68 117 -12 36 -33 81 -47 99
-61 84 -85 125 -99 174 -10 36 -32 72 -64 109 -32 36 -61 84 -82 136 -18 45
-50 102 -73 129 -24 28 -53 80 -69 123 -19 48 -47 96 -78 133 -28 33 -56 79
-65 108 -23 71 -40 101 -89 161 -23 29 -51 77 -60 106 -24 72 -38 97 -76 139
-32 34 -59 88 -93 182 -10 26 -35 64 -57 85 -30 29 -48 62 -75 133 -26 72 -45
106 -78 140 -29 30 -52 66 -67 108 -12 35 -43 90 -69 122 -26 33 -52 72 -57
87 -6 15 -19 50 -28 77 -10 27 -39 72 -65 101 -43 48 -77 115 -96 190 -4 15
-28 48 -55 75 -37 37 -52 61 -64 106 -9 33 -21 73 -26 89 -5 17 -32 53 -59 80
-34 34 -55 65 -66 99 -24 74 -49 118 -93 170 -21 25 -47 69 -56 98 -25 74 -49
119 -80 148 -32 29 -55 74 -80 150 -13 40 -31 67 -66 100 -42 40 -51 56 -75
135 -24 80 -32 95 -75 134 -43 39 -52 54 -75 129 -20 67 -34 94 -69 131 -24
25 -54 71 -68 102 -14 31 -35 64 -48 73 -22 15 -187 16 -2029 16 -1976 0
-2005 0 -2037 -20z"/>
<path d="M30490 21533 c-75 -13 -102 -25 -121 -56 -19 -31 -19 -55 -18 -1301
l0 -1268 -23 -46 c-42 -82 -6 -79 -733 -72 -479 4 -648 2 -672 -6 -20 -8 -41
-29 -60 -61 l-28 -48 -3 -974 c-2 -878 -1 -976 14 -998 35 -54 29 -54 759 -53
424 1 680 -2 692 -8 10 -6 26 -19 36 -30 17 -19 18 -152 17 -2898 0 -2812 0
-2879 19 -2958 11 -45 22 -106 24 -137 3 -31 19 -97 35 -145 21 -61 36 -133
47 -231 18 -164 27 -195 83 -282 23 -35 43 -70 46 -79 41 -150 51 -174 94
-224 25 -29 59 -82 75 -117 23 -48 42 -72 78 -98 27 -19 61 -53 77 -76 15 -23
50 -57 77 -76 28 -19 64 -52 80 -74 34 -45 31 -43 136 -90 42 -19 94 -51 117
-71 30 -27 64 -44 124 -63 46 -13 119 -44 163 -68 96 -52 124 -60 285 -85 69
-10 218 -42 332 -69 166 -41 224 -51 295 -51 48 -1 108 -5 133 -10 25 -5 673
-9 1483 -10 1365 -1 1440 0 1475 17 19 10 45 31 56 46 21 28 21 36 26 1185 3
636 2 1167 -2 1179 -10 30 -57 71 -98 85 -24 8 -201 11 -590 12 -624 1 -637 2
-800 75 -47 21 -107 44 -134 52 -38 9 -66 28 -118 78 -77 72 -90 92 -120 189
-11 37 -36 97 -54 134 -21 41 -38 94 -44 135 -6 43 -10 926 -10 2384 0 2299 0
2315 20 2337 11 11 37 26 57 31 25 7 332 11 898 11 477 0 889 5 924 10 75 11
113 35 121 76 3 16 3 459 0 984 -6 1075 1 998 -83 1042 l-42 23 -880 5 -880 5
-48 22 c-39 18 -52 31 -68 67 -19 45 -20 67 -19 1310 1 1180 0 1266 -16 1291
-38 59 67 55 -1641 54 -862 -1 -1579 -4 -1593 -6z"/>
<path d="M22485 19000 c-27 -5 -79 -9 -114 -9 -99 -1 -264 -29 -401 -66 -124
-34 -209 -49 -345 -60 -126 -11 -228 -36 -334 -82 -77 -33 -138 -51 -233 -68
-96 -18 -141 -31 -175 -52 -24 -15 -61 -38 -81 -50 -21 -12 -62 -27 -92 -33
-118 -24 -158 -40 -211 -85 -41 -35 -72 -51 -151 -75 -77 -24 -109 -40 -141
-69 -47 -43 -79 -61 -153 -85 -29 -9 -75 -37 -109 -66 -32 -27 -73 -56 -92
-65 -18 -8 -48 -22 -67 -31 -19 -8 -46 -33 -60 -55 -16 -23 -45 -48 -75 -64
-27 -13 -66 -45 -86 -69 -20 -25 -57 -57 -82 -71 -57 -34 -488 -466 -513 -515
-10 -20 -39 -53 -65 -74 -25 -21 -56 -59 -69 -84 -13 -26 -43 -64 -66 -86 -24
-22 -56 -68 -76 -110 -19 -40 -55 -96 -80 -124 -29 -33 -53 -74 -66 -114 -14
-41 -36 -78 -63 -108 -52 -55 -69 -87 -94 -180 -11 -39 -28 -84 -38 -99 -10
-16 -32 -49 -50 -76 -22 -32 -39 -78 -54 -143 -14 -59 -41 -133 -70 -191 -51
-104 -60 -133 -84 -261 -9 -47 -34 -125 -55 -175 -50 -117 -56 -140 -80 -335
-25 -206 -55 -400 -76 -488 -42 -181 -46 -214 -56 -507 -12 -355 -12 -492 -1
-885 8 -273 10 -298 31 -340 16 -35 22 -63 22 -124 0 -61 6 -94 25 -143 18
-45 29 -97 36 -176 30 -357 34 -378 94 -507 34 -73 49 -122 65 -215 26 -152
39 -190 84 -249 33 -44 66 -127 66 -167 0 -43 40 -141 74 -181 27 -31 45 -69
68 -143 27 -86 37 -106 77 -146 34 -34 52 -63 65 -105 25 -81 48 -124 86 -159
18 -16 47 -60 65 -96 21 -40 50 -79 73 -97 27 -21 51 -57 80 -115 28 -60 52
-94 82 -118 23 -18 57 -60 77 -92 19 -32 52 -70 74 -84 21 -14 52 -47 69 -74
16 -27 47 -60 69 -74 22 -13 58 -50 81 -80 26 -35 57 -64 88 -79 26 -13 63
-41 82 -61 19 -20 69 -59 110 -85 41 -27 91 -65 110 -85 19 -20 65 -52 102
-71 37 -19 76 -47 89 -65 14 -20 48 -43 93 -64 39 -18 91 -50 116 -72 54 -48
91 -68 156 -84 64 -15 98 -33 158 -81 32 -25 74 -46 120 -59 111 -32 127 -40
183 -81 66 -48 85 -55 210 -78 67 -12 118 -28 145 -44 90 -54 135 -69 272 -92
275 -46 321 -56 405 -89 115 -44 172 -55 354 -64 85 -5 161 -12 168 -16 7 -5
96 -9 198 -10 174 0 189 -2 236 -24 l49 -24 451 0 451 0 49 24 c47 22 62 24
236 24 102 1 191 5 198 10 7 4 81 11 165 16 184 10 294 29 429 73 56 18 131
39 167 45 340 58 349 60 440 107 69 35 116 51 207 69 146 29 146 29 215 81 43
32 76 46 130 59 115 25 137 34 189 81 39 35 68 49 147 73 77 24 109 40 144 71
25 22 83 56 129 75 56 24 98 49 129 79 25 25 70 56 100 69 33 15 72 43 96 70
23 25 63 57 90 70 27 14 65 42 84 62 19 20 73 63 120 95 47 32 98 75 114 97
16 21 49 54 73 72 24 19 58 53 75 77 17 24 48 55 70 70 21 15 55 50 75 78 20
28 60 76 89 107 28 30 66 82 82 116 20 38 49 75 81 102 38 32 55 56 68 93 11
30 38 73 66 104 32 35 61 82 83 135 19 45 52 102 74 126 31 36 47 69 75 157
21 69 49 133 73 169 39 58 54 100 92 256 12 50 32 102 50 130 24 35 30 55 28
86 -5 63 -42 76 -242 86 -89 5 -180 13 -204 18 -24 5 -130 6 -235 3 -204 -5
-307 4 -456 40 -78 18 -106 20 -295 15 l-209 -6 -61 27 c-61 27 -62 27 -316
28 -140 1 -309 7 -375 13 -66 6 -232 11 -370 11 -137 0 -268 5 -290 10 -22 4
-113 10 -202 12 -151 3 -163 2 -190 -18 -29 -22 -52 -72 -74 -158 -7 -27 -28
-70 -48 -95 -19 -25 -45 -79 -58 -119 -30 -94 -46 -125 -93 -176 -20 -22 -49
-65 -64 -94 -18 -35 -43 -64 -76 -88 -27 -19 -65 -57 -84 -84 -25 -35 -53 -58
-93 -79 -32 -16 -67 -39 -78 -51 -34 -38 -97 -76 -165 -100 -36 -13 -88 -40
-116 -61 -71 -52 -120 -66 -344 -94 -107 -13 -215 -32 -240 -41 -33 -12 -84
-17 -190 -19 -126 -2 -156 0 -225 20 -78 22 -165 38 -275 50 -122 13 -157 25
-224 74 -40 30 -91 56 -136 70 -59 19 -80 31 -118 73 -26 27 -64 59 -85 69
-60 31 -332 310 -363 372 -14 29 -43 70 -64 92 -23 24 -53 73 -73 122 -19 45
-53 109 -75 143 -32 47 -45 82 -62 158 -34 150 -49 201 -81 264 -41 81 -56
158 -76 380 -30 334 -22 469 32 504 20 13 437 15 3511 17 l3489 2 42 23 c80
42 76 8 74 592 -2 493 -3 523 -22 578 -15 43 -23 101 -30 232 -5 96 -11 186
-14 200 -2 14 -9 90 -15 169 -12 161 -36 289 -73 377 -38 93 -45 119 -72 279
-22 131 -30 161 -70 240 -29 58 -52 124 -65 185 -22 100 -50 170 -93 234 -15
21 -42 88 -61 150 -27 86 -43 118 -67 141 -37 36 -63 83 -78 145 -20 77 -42
117 -83 151 -27 21 -50 53 -69 96 -16 36 -48 86 -70 112 -23 25 -57 78 -75
117 -25 53 -47 83 -84 114 -28 24 -62 65 -76 91 -13 27 -39 59 -58 71 -18 12
-48 44 -67 72 -19 27 -54 64 -79 81 -25 17 -58 50 -73 73 -16 23 -48 56 -72
72 -25 17 -58 50 -74 74 -18 26 -52 56 -84 74 -31 17 -64 46 -79 70 -19 27
-44 48 -82 66 -31 15 -79 47 -108 73 -28 25 -85 62 -125 81 -51 24 -85 48
-109 78 -27 33 -52 49 -105 69 -38 15 -91 44 -118 65 -60 48 -89 62 -178 89
-45 13 -87 34 -114 57 -57 48 -82 59 -177 83 -45 11 -126 42 -181 70 -57 28
-133 56 -178 66 -165 37 -199 47 -273 80 -102 46 -173 63 -310 75 -168 15
-247 29 -315 57 -33 13 -89 26 -125 30 -36 3 -87 12 -115 20 -27 8 -111 19
-185 25 -164 12 -1435 19 -1505 8z m965 -2150 c47 -10 155 -31 240 -45 166
-29 213 -45 273 -93 21 -17 62 -38 90 -48 75 -24 138 -58 167 -89 14 -15 48
-43 75 -63 65 -47 237 -220 296 -297 26 -33 57 -69 69 -80 26 -24 63 -93 81
-154 7 -23 31 -64 54 -90 51 -57 60 -80 80 -201 21 -127 38 -191 79 -297 19
-49 39 -127 47 -178 11 -80 10 -94 -4 -122 -32 -61 73 -58 -1849 -58 l-1757 0
-23 23 c-35 34 -36 158 -4 330 25 132 29 145 80 234 18 31 32 79 42 135 18
116 29 144 66 179 17 16 52 74 78 129 38 78 58 108 94 138 25 21 58 60 71 88
16 31 40 58 64 74 22 13 54 43 73 66 18 22 51 50 73 61 22 11 65 46 95 77 50
53 63 61 153 90 53 18 120 48 148 68 67 45 112 61 239 79 58 9 141 25 185 36
57 16 128 23 250 28 199 9 260 5 375 -20z"/>
<path d="M57875 19000 c-22 -5 -81 -9 -131 -9 -54 -1 -120 -9 -165 -20 -41
-10 -103 -21 -139 -24 -36 -4 -92 -17 -125 -30 -67 -27 -143 -41 -315 -57
-138 -13 -205 -29 -309 -75 -77 -34 -110 -43 -274 -80 -47 -10 -119 -37 -175
-66 -54 -27 -139 -59 -190 -73 -56 -14 -107 -34 -132 -52 -22 -16 -54 -39 -71
-52 -18 -12 -50 -27 -73 -32 -80 -20 -124 -41 -180 -84 -31 -25 -87 -56 -124
-70 -47 -18 -82 -40 -111 -70 -31 -32 -68 -54 -132 -81 -69 -28 -96 -45 -120
-76 -18 -23 -56 -53 -90 -70 -40 -19 -68 -42 -85 -69 -15 -22 -48 -53 -74 -69
-26 -16 -64 -50 -85 -76 -21 -25 -52 -53 -69 -62 -44 -23 -204 -181 -226 -224
-11 -20 -41 -55 -69 -78 -27 -23 -61 -61 -75 -85 -13 -23 -43 -55 -65 -69 -28
-19 -50 -46 -70 -86 -17 -34 -47 -72 -70 -90 -31 -24 -48 -51 -76 -120 -27
-64 -49 -101 -81 -132 -30 -30 -52 -64 -70 -111 -14 -38 -43 -90 -64 -117 -48
-60 -62 -89 -88 -177 -12 -39 -36 -88 -53 -110 -46 -58 -59 -87 -90 -207 -17
-62 -48 -147 -73 -196 -33 -65 -50 -117 -69 -208 -14 -67 -43 -167 -66 -222
-54 -136 -83 -291 -101 -543 -7 -108 -15 -151 -35 -201 -19 -49 -25 -81 -25
-141 0 -58 -6 -90 -22 -129 l-23 -52 0 -645 0 -645 27 -140 c14 -77 32 -171
38 -210 6 -38 17 -99 25 -135 8 -36 22 -137 30 -225 21 -209 36 -278 85 -385
30 -66 46 -119 61 -205 23 -136 29 -154 75 -220 26 -38 42 -81 65 -174 30
-126 55 -187 84 -211 24 -20 44 -64 76 -165 22 -70 38 -102 73 -143 24 -28 50
-69 57 -89 21 -66 58 -132 91 -161 17 -15 47 -63 68 -107 25 -55 48 -89 72
-107 20 -15 50 -53 68 -85 18 -32 58 -85 90 -118 31 -33 71 -81 88 -106 17
-26 49 -61 71 -78 22 -17 53 -55 70 -85 20 -37 45 -63 78 -83 26 -17 103 -85
171 -151 84 -83 143 -132 185 -154 34 -18 80 -52 102 -75 23 -23 66 -54 97
-68 33 -15 77 -47 104 -75 26 -27 64 -55 83 -61 63 -20 115 -50 161 -94 25
-23 68 -50 95 -59 87 -31 129 -52 173 -89 24 -20 60 -41 80 -46 20 -5 66 -17
102 -26 77 -20 91 -27 153 -75 49 -40 73 -47 236 -76 71 -13 114 -27 177 -60
92 -49 155 -66 324 -88 64 -8 143 -24 175 -36 140 -52 167 -60 247 -74 87 -15
294 -32 583 -46 98 -5 191 -14 220 -23 88 -27 130 -29 543 -29 385 -1 412 1
507 22 62 13 146 23 220 26 66 2 138 6 160 10 22 3 103 10 180 14 202 13 364
41 501 88 82 28 158 46 244 57 108 14 144 24 270 75 80 32 182 65 228 75 104
21 146 38 194 79 36 31 60 40 210 81 41 11 73 29 108 60 40 36 68 50 147 74
84 26 104 37 142 75 28 29 63 51 101 65 37 14 81 42 124 80 42 37 87 66 119
78 35 12 68 34 102 69 27 29 64 59 82 68 17 9 51 38 74 66 23 27 61 61 84 74
23 14 57 42 76 63 19 21 56 55 82 76 25 21 58 55 73 76 15 20 45 50 66 66 21
16 53 51 69 77 17 26 48 62 70 78 21 17 52 55 68 84 18 31 48 65 72 80 31 21
48 43 70 93 16 37 47 86 69 109 21 23 57 78 79 122 22 44 53 90 69 104 42 35
58 63 85 151 17 53 36 90 61 118 41 45 56 74 86 173 12 39 37 93 55 121 47 71
62 110 85 223 27 128 37 159 72 210 45 66 57 104 74 230 20 150 46 260 84 356
42 107 50 149 61 331 5 88 13 205 19 260 5 55 9 146 10 203 0 87 4 112 25 163
l26 60 -4 392 c-3 331 -7 402 -21 457 -10 36 -21 135 -26 220 -16 278 -29 439
-39 497 -6 32 -15 93 -21 136 -5 43 -27 129 -49 193 -27 77 -47 161 -61 255
-24 158 -23 155 -85 282 -30 62 -51 124 -65 189 -22 112 -37 151 -72 193 -36
42 -54 81 -73 155 -21 79 -38 113 -84 166 -24 28 -45 69 -64 126 -20 63 -39
98 -73 138 -26 30 -61 86 -79 125 -22 46 -45 80 -69 98 -25 19 -49 54 -73 104
-20 43 -56 96 -85 126 -27 29 -60 73 -74 100 -15 29 -43 61 -72 82 -26 18 -58
52 -71 75 -13 23 -45 58 -72 77 -27 19 -63 55 -79 79 -17 23 -49 55 -72 71
-23 15 -56 48 -73 73 -18 26 -51 56 -79 71 -26 14 -71 49 -99 76 -29 28 -81
67 -117 86 -36 20 -81 52 -100 72 -19 20 -65 52 -102 71 -40 20 -79 49 -99 73
-33 42 -69 60 -159 81 -45 11 -64 22 -105 65 -44 45 -62 56 -135 79 -47 15
-107 42 -135 60 -74 49 -85 54 -207 86 -70 18 -131 41 -162 62 -92 58 -120 67
-248 87 -107 16 -143 26 -225 64 -103 48 -139 57 -418 97 -264 39 -309 48
-370 75 -52 24 -80 29 -210 37 -197 12 -1548 19 -1600 8z m1015 -2449 c47 -12
145 -31 218 -42 142 -20 192 -36 232 -73 34 -33 71 -49 173 -80 81 -25 91 -30
120 -72 21 -30 48 -53 84 -70 35 -16 64 -39 84 -67 16 -23 50 -57 74 -74 30
-22 55 -53 74 -91 20 -39 43 -67 69 -85 33 -21 46 -40 74 -108 18 -45 49 -100
69 -123 48 -55 57 -74 85 -177 13 -49 44 -128 68 -176 50 -99 59 -130 82 -293
22 -157 38 -230 75 -335 26 -75 33 -113 40 -230 5 -77 13 -194 18 -260 13
-160 13 -799 1 -950 -6 -66 -15 -178 -20 -250 -7 -94 -16 -151 -35 -205 -40
-118 -72 -255 -89 -380 -17 -132 -24 -156 -72 -225 -24 -36 -42 -80 -60 -155
-30 -120 -43 -149 -96 -209 -21 -24 -46 -67 -56 -94 -9 -29 -37 -72 -63 -101
-26 -28 -69 -90 -98 -138 -45 -76 -58 -91 -113 -124 -35 -21 -88 -62 -118 -90
-32 -30 -83 -65 -120 -82 -36 -16 -81 -46 -100 -67 -43 -45 -58 -52 -184 -76
-67 -12 -130 -33 -195 -63 -91 -43 -104 -46 -236 -58 -166 -15 -405 -16 -565
-1 -107 10 -123 14 -210 57 -76 37 -118 50 -207 65 -125 22 -134 25 -197 80
-25 21 -78 55 -119 74 -52 25 -85 48 -109 78 -18 23 -57 55 -86 71 -35 20 -61
44 -78 74 -14 24 -48 63 -76 86 -36 30 -59 60 -78 103 -15 33 -46 82 -69 109
-51 59 -63 82 -90 173 -12 39 -38 96 -58 125 -50 75 -59 100 -82 229 -18 110
-45 195 -75 242 -35 54 -49 149 -86 584 -13 156 -13 1168 0 1293 6 52 15 167
20 255 10 159 21 224 55 300 25 57 62 191 90 328 26 127 31 138 81 204 19 25
42 74 54 116 33 112 41 129 90 178 26 26 52 64 60 89 23 70 280 345 360 385
19 10 55 39 80 65 39 41 58 51 132 74 61 19 102 38 143 71 66 51 130 69 306
85 71 6 127 18 170 34 62 25 69 26 269 22 169 -3 220 -7 290 -25z"/>
<path d="M71135 18999 c-22 -4 -93 -13 -157 -18 -96 -8 -132 -16 -205 -45 -92
-37 -149 -52 -321 -85 -86 -16 -113 -26 -172 -64 -54 -35 -88 -48 -157 -62
-109 -23 -133 -34 -173 -84 -28 -36 -43 -44 -130 -71 -89 -28 -103 -35 -135
-74 -21 -26 -57 -54 -88 -69 -29 -13 -68 -42 -88 -64 -19 -21 -51 -50 -70 -63
-19 -13 -69 -58 -111 -99 -42 -42 -82 -80 -88 -86 -6 -5 -32 -32 -58 -60 -26
-27 -61 -62 -77 -76 -54 -46 -156 -169 -182 -216 -13 -26 -43 -63 -66 -84 -32
-28 -48 -53 -67 -105 -18 -53 -37 -83 -81 -129 -32 -34 -67 -83 -79 -113 -13
-29 -31 -57 -42 -63 -24 -13 -55 -3 -68 22 -7 12 -10 247 -9 698 l2 680 -24
47 c-44 86 99 80 -1589 74 l-1495 -5 -48 -22 c-38 -18 -52 -31 -67 -67 -20
-44 -20 -90 -18 -4953 3 -4885 3 -4908 23 -4948 38 -76 -100 -70 1675 -73
1214 -2 1602 1 1624 10 17 7 35 26 45 47 15 33 16 258 22 2566 5 2502 6 2531
26 2620 11 50 32 128 46 175 13 47 34 159 46 248 23 178 31 203 84 281 20 28
43 77 52 109 22 82 47 131 93 182 21 25 56 79 75 120 24 50 46 82 67 95 17 11
47 46 66 77 22 37 49 65 78 82 23 14 60 46 81 71 23 29 57 55 89 69 28 13 67
40 86 61 44 46 89 69 176 91 51 13 78 27 110 56 55 50 89 63 232 87 67 11 154
33 194 47 120 44 234 65 408 74 91 6 206 14 255 19 120 13 289 13 345 0 25 -6
149 -14 275 -19 192 -6 251 -12 355 -35 178 -38 215 -30 252 53 18 41 19 92
19 1502 0 976 -3 1472 -10 1498 -15 53 -47 80 -110 92 -65 12 -858 12 -916 -1z"/>
<path d="M87730 18991 c-134 -12 -215 -24 -260 -39 -89 -29 -297 -69 -460 -87
-152 -16 -220 -34 -294 -75 -66 -36 -97 -45 -240 -70 -133 -23 -169 -36 -241
-86 -36 -24 -80 -42 -155 -60 -115 -28 -141 -39 -206 -89 -26 -20 -75 -43
-117 -55 -111 -32 -125 -40 -163 -86 -30 -36 -48 -47 -114 -69 -58 -19 -93
-38 -129 -71 -27 -24 -77 -57 -112 -72 -45 -21 -75 -43 -102 -76 -22 -26 -61
-58 -90 -72 -27 -14 -66 -44 -86 -66 -20 -22 -67 -60 -106 -85 -38 -25 -97
-72 -130 -104 -33 -33 -112 -110 -176 -172 -81 -78 -125 -129 -144 -167 -15
-30 -51 -78 -81 -107 -29 -28 -64 -74 -78 -101 -14 -27 -44 -65 -67 -83 -29
-23 -51 -54 -71 -97 -16 -35 -46 -82 -67 -105 -41 -45 -70 -97 -91 -162 -7
-22 -34 -62 -60 -90 -38 -40 -53 -65 -70 -125 -29 -96 -50 -138 -89 -175 -32
-30 -47 -71 -72 -194 -8 -42 -24 -79 -45 -110 -57 -78 -65 -100 -89 -233 -28
-150 -36 -179 -81 -268 -39 -78 -59 -166 -74 -320 -14 -139 -61 -383 -90 -465
-16 -46 -23 -99 -30 -230 -5 -93 -12 -185 -15 -203 -11 -59 -6 -1184 4 -1227
6 -22 11 -83 11 -135 0 -61 7 -122 20 -170 11 -41 20 -96 20 -122 0 -28 12
-77 29 -120 31 -80 34 -95 56 -308 17 -159 25 -191 80 -324 20 -50 48 -141 61
-204 27 -128 40 -164 83 -225 29 -43 52 -107 86 -240 12 -47 31 -86 60 -125
25 -35 53 -89 69 -137 19 -59 39 -95 75 -137 30 -35 59 -84 75 -126 19 -50 39
-80 75 -114 32 -31 54 -62 67 -98 11 -32 41 -78 75 -117 32 -35 68 -88 83
-118 16 -35 40 -65 70 -87 24 -18 58 -54 75 -80 17 -26 51 -61 76 -78 24 -16
56 -49 72 -72 15 -23 48 -56 73 -73 24 -17 58 -51 75 -75 17 -24 51 -58 75
-75 24 -17 58 -51 75 -75 20 -30 48 -53 82 -70 28 -14 74 -47 102 -73 28 -26
83 -63 123 -82 45 -22 89 -53 118 -83 33 -34 63 -54 108 -71 35 -12 87 -42
116 -66 61 -50 90 -66 163 -89 28 -9 71 -34 95 -55 56 -50 67 -55 179 -86 59
-17 116 -41 154 -65 75 -49 93 -55 227 -79 71 -13 122 -28 150 -45 105 -63
151 -79 277 -97 162 -24 164 -24 307 -69 162 -52 259 -69 446 -80 87 -4 162
-11 168 -15 6 -4 86 -8 178 -10 137 -3 179 -8 237 -26 68 -21 84 -22 520 -21
446 0 450 0 500 23 44 20 74 23 240 30 499 21 587 31 790 96 88 28 190 51 275
64 164 24 199 33 270 69 64 32 195 75 260 85 76 11 139 35 187 72 59 45 88 57
193 78 99 20 104 22 165 75 34 29 68 46 131 66 72 22 95 34 143 78 37 34 76
59 118 74 41 15 81 40 116 72 30 27 84 63 119 79 40 17 81 46 104 71 22 23 57
51 79 62 39 20 87 61 243 204 43 39 107 90 144 113 53 34 75 56 109 109 23 37
74 102 113 144 134 145 183 203 204 243 11 22 39 57 62 79 26 23 54 64 71 104
17 36 47 85 69 108 44 48 60 77 85 153 10 31 34 72 55 95 49 53 74 105 99 201
11 42 34 101 52 129 56 87 67 118 87 233 14 74 29 126 46 155 40 68 33 93 -34
129 -30 15 -188 25 -635 38 -331 9 -340 10 -440 43 -55 19 -78 20 -270 15
-169 -5 -218 -3 -250 9 -103 37 -123 38 -1095 64 -168 4 -373 13 -457 18 -164
12 -200 7 -241 -30 -37 -35 -128 -226 -152 -319 -25 -99 -27 -102 -83 -168
-24 -28 -61 -82 -82 -120 -24 -44 -52 -80 -76 -96 -20 -15 -53 -51 -73 -80
-28 -43 -49 -61 -98 -85 -34 -17 -83 -50 -108 -74 -55 -52 -72 -61 -162 -92
-38 -13 -86 -37 -108 -54 -21 -17 -53 -36 -72 -44 -36 -15 -236 -51 -338 -61
-36 -3 -103 -17 -150 -30 -115 -32 -329 -31 -430 2 -36 12 -112 27 -170 33
-208 23 -285 46 -363 108 -21 17 -73 42 -116 57 -59 19 -87 35 -117 66 -21 22
-76 61 -121 87 -56 31 -91 58 -108 83 -13 21 -54 67 -89 103 -38 38 -78 91
-96 127 -18 34 -51 83 -75 108 -27 29 -56 75 -73 119 -16 39 -43 88 -59 109
-43 54 -58 87 -78 173 -21 88 -53 183 -87 260 -14 30 -30 77 -37 105 -17 68
-42 274 -52 430 -4 72 -11 178 -15 236 -4 75 -3 112 6 128 29 55 -207 52 3550
51 3789 0 3517 -5 3557 56 12 20 20 56 24 119 3 52 15 119 29 159 21 65 22 79
17 270 -4 154 -9 213 -22 251 -14 38 -19 103 -25 275 -4 124 -13 290 -19 370
-31 400 -29 386 -64 478 -44 112 -72 232 -97 408 -23 161 -36 205 -78 262 -32
45 -41 74 -71 230 -14 76 -27 115 -48 144 -56 81 -73 114 -88 182 -22 94 -38
130 -82 180 -25 28 -46 68 -60 112 -16 49 -37 87 -73 129 -30 35 -61 87 -77
129 -18 45 -45 90 -75 123 -26 29 -61 80 -78 112 -16 33 -49 79 -71 103 -23
24 -58 72 -78 107 -24 43 -51 75 -81 96 -25 17 -58 50 -73 73 -16 23 -48 56
-72 72 -25 17 -58 50 -75 75 -16 24 -49 56 -72 72 -23 15 -56 48 -73 73 -17
25 -53 59 -79 76 -26 18 -61 50 -78 73 -19 27 -52 53 -89 72 -33 16 -84 52
-115 80 -31 28 -85 64 -121 80 -38 17 -83 48 -111 76 -38 38 -62 53 -119 71
-51 16 -88 36 -125 68 -42 35 -72 51 -150 75 -80 24 -108 38 -148 74 -35 31
-68 49 -108 60 -125 35 -160 48 -247 91 -62 30 -121 50 -190 64 -102 20 -204
52 -286 89 -70 31 -148 48 -327 71 -100 12 -234 38 -345 66 -244 62 -303 66
-1117 69 -569 2 -706 0 -870 -14z m1100 -2140 c36 -11 135 -30 220 -41 182
-24 224 -37 291 -86 27 -20 85 -49 127 -65 60 -22 86 -39 117 -73 26 -29 68
-59 122 -85 67 -33 90 -51 126 -98 25 -32 65 -76 89 -99 25 -23 62 -72 83
-110 20 -38 58 -90 82 -115 37 -38 49 -61 69 -129 13 -45 32 -95 41 -110 10
-15 32 -48 50 -74 22 -33 35 -69 43 -119 12 -72 24 -130 61 -306 11 -51 29
-111 39 -132 32 -62 28 -123 -9 -146 -49 -31 -165 -33 -1849 -33 -1837 0
-1754 -2 -1783 51 -12 23 -11 59 11 264 16 152 26 191 79 300 27 55 57 133 66
174 19 88 24 99 82 173 24 32 55 83 69 115 16 36 45 77 77 108 29 28 61 66 72
85 11 18 40 48 65 65 24 17 58 51 75 75 17 25 50 54 75 67 25 13 66 46 93 73
37 39 59 53 105 65 100 28 139 45 184 81 53 42 135 69 261 84 100 12 117 16
203 47 45 16 79 18 275 17 197 -2 232 -4 289 -23z"/>
<path d="M101059 19005 c-3 -2 -66 -8 -142 -14 -128 -9 -142 -12 -224 -49 -89
-41 -175 -63 -313 -82 -105 -14 -136 -24 -210 -70 -59 -37 -102 -53 -238 -89
-24 -7 -63 -30 -91 -55 -28 -25 -81 -56 -127 -75 -51 -21 -95 -48 -124 -76
-25 -24 -67 -54 -95 -68 -27 -14 -66 -42 -85 -62 -19 -21 -66 -58 -105 -82
-38 -25 -104 -78 -145 -118 -41 -39 -85 -77 -97 -84 -12 -6 -44 -50 -70 -97
-29 -52 -64 -98 -89 -119 -23 -19 -52 -57 -66 -87 -16 -33 -45 -69 -76 -95
-38 -32 -54 -55 -67 -94 -12 -35 -34 -68 -76 -110 -40 -40 -64 -75 -76 -110
-22 -61 -48 -91 -76 -87 -47 7 -48 10 -46 719 l2 666 -22 46 c-41 85 119 77
-1616 78 -1003 0 -1552 -4 -1564 -10 -10 -6 -28 -33 -40 -60 l-21 -50 2 -4938
c3 -4641 4 -4940 20 -4969 10 -17 25 -35 34 -38 10 -4 748 -6 1642 -6 1787 0
1666 -4 1693 62 12 27 15 470 19 2613 l5 2580 42 160 c41 158 59 243 87 400
18 103 26 122 75 179 22 25 46 65 52 89 31 116 44 143 85 187 24 26 55 72 69
103 19 43 37 66 75 93 27 19 60 53 72 75 12 22 43 53 71 71 27 17 56 43 65 57
30 49 57 73 113 101 31 16 63 40 73 54 20 31 64 55 171 91 44 15 99 41 123 57
64 44 97 55 232 78 114 19 154 30 315 90 50 19 91 24 250 31 105 4 210 12 235
18 57 13 227 13 345 0 50 -6 196 -14 325 -19 152 -5 258 -14 300 -24 36 -9
101 -21 145 -27 102 -15 130 -4 163 62 l23 46 0 1462 c0 963 -4 1474 -11 1499
-14 53 -46 80 -109 92 -52 10 -893 15 -902 5z"/>
<path d="M106865 19000 c-38 -4 -122 -8 -185 -9 -85 -1 -128 -7 -165 -20 -27
-11 -69 -26 -91 -35 -39 -14 -213 -43 -404 -67 -205 -25 -267 -39 -377 -84
-68 -28 -162 -57 -235 -72 -93 -19 -146 -37 -223 -74 -62 -31 -140 -59 -208
-75 -92 -23 -117 -33 -171 -74 -46 -33 -87 -53 -144 -69 -57 -17 -96 -36 -143
-71 -36 -27 -95 -61 -132 -75 -50 -20 -77 -38 -100 -67 -21 -27 -58 -53 -111
-79 -44 -22 -98 -57 -121 -78 -22 -21 -69 -53 -104 -71 -46 -25 -69 -44 -88
-77 -18 -31 -43 -54 -80 -75 -30 -17 -68 -49 -86 -72 -17 -22 -49 -54 -70 -71
-22 -16 -51 -51 -66 -76 -14 -26 -46 -62 -71 -80 -32 -24 -54 -53 -76 -98 -17
-35 -52 -88 -78 -117 -26 -30 -62 -86 -80 -126 -20 -43 -51 -89 -75 -112 -35
-34 -43 -50 -57 -115 -28 -134 -34 -149 -75 -203 -51 -68 -65 -118 -84 -308
-9 -85 -28 -204 -42 -265 -23 -99 -26 -135 -31 -361 -4 -248 -4 -252 22 -340
14 -49 26 -113 26 -143 0 -29 6 -95 14 -145 8 -50 19 -130 24 -177 9 -86 20
-114 74 -201 27 -43 40 -87 73 -241 14 -64 24 -86 57 -124 22 -26 55 -79 73
-117 17 -39 53 -96 79 -126 26 -30 61 -81 77 -112 15 -31 49 -76 74 -99 25
-23 56 -62 70 -85 15 -25 42 -52 66 -66 22 -12 56 -44 74 -70 22 -31 53 -57
85 -73 32 -16 62 -42 82 -70 23 -32 49 -52 97 -75 36 -18 84 -49 107 -70 45
-41 94 -69 158 -90 22 -7 60 -32 85 -55 58 -53 69 -59 160 -79 88 -20 105 -28
151 -72 45 -42 88 -60 207 -84 66 -14 127 -35 197 -70 79 -39 122 -53 196 -65
128 -21 170 -32 270 -72 105 -43 229 -68 469 -93 203 -22 226 -27 351 -71 63
-22 114 -33 195 -39 60 -4 148 -13 195 -19 47 -6 141 -15 210 -20 91 -7 180
-23 330 -60 169 -41 238 -52 390 -66 256 -22 325 -36 439 -90 81 -37 117 -48
210 -61 137 -19 175 -32 243 -82 35 -26 82 -49 139 -66 70 -21 96 -35 143 -76
32 -28 83 -64 114 -79 49 -25 62 -38 94 -94 21 -36 51 -75 66 -86 16 -11 40
-44 53 -73 23 -50 24 -64 24 -243 -1 -220 -11 -269 -74 -354 -22 -29 -47 -74
-56 -100 -18 -55 -159 -207 -221 -239 -21 -11 -59 -41 -84 -66 -36 -38 -58
-50 -115 -67 -38 -11 -107 -40 -151 -64 -105 -56 -160 -72 -324 -90 -189 -21
-770 -21 -929 0 -281 37 -304 43 -367 92 -42 32 -60 40 -172 73 -54 15 -85 31
-116 60 -24 22 -68 51 -99 65 -43 19 -66 37 -93 75 -20 27 -54 62 -77 77 -22
16 -55 48 -72 73 -17 25 -50 58 -74 73 -32 22 -50 46 -76 102 -19 40 -46 80
-60 89 -37 24 -63 85 -86 199 -19 93 -34 134 -83 222 -9 17 -26 57 -38 90 -39
109 -89 136 -179 96 -50 -22 -219 -38 -540 -50 -108 -4 -202 -11 -208 -16 -7
-4 -72 -9 -144 -11 -91 -2 -168 -11 -248 -28 -82 -17 -133 -23 -175 -19 -50 4
-69 1 -124 -22 -58 -25 -82 -29 -230 -36 -174 -9 -432 -24 -665 -38 -77 -5
-165 -16 -195 -25 -30 -8 -119 -22 -196 -30 -159 -16 -217 -38 -272 -101 -38
-43 -39 -64 -7 -133 29 -62 48 -136 65 -242 18 -116 37 -175 79 -239 45 -70
53 -90 82 -199 17 -65 30 -94 60 -129 45 -51 60 -78 84 -151 10 -30 36 -74 62
-105 25 -28 60 -84 78 -122 23 -50 46 -81 78 -108 25 -20 59 -61 76 -91 17
-30 47 -66 67 -80 20 -13 50 -46 67 -72 18 -27 51 -61 74 -76 22 -16 57 -50
76 -76 19 -27 54 -61 78 -76 24 -16 56 -46 71 -67 17 -24 49 -49 87 -69 33
-16 72 -45 87 -65 15 -20 59 -54 98 -75 39 -22 95 -59 123 -84 30 -25 81 -55
121 -70 44 -17 82 -40 106 -65 42 -43 75 -59 181 -90 51 -15 84 -32 122 -65
57 -48 79 -58 191 -81 79 -16 113 -31 175 -76 46 -33 70 -41 232 -74 77 -16
145 -37 190 -59 106 -52 117 -55 290 -81 113 -16 184 -33 237 -54 52 -20 123
-37 217 -51 77 -11 163 -25 192 -30 28 -6 96 -10 149 -10 53 0 122 -5 151 -11
30 -6 133 -12 229 -13 161 -1 179 -3 225 -24 l50 -24 530 0 530 0 50 24 c46
21 63 23 237 24 102 1 191 5 197 8 5 4 86 11 178 16 349 21 393 26 473 59 41
17 84 30 96 31 11 0 56 9 100 20 43 11 139 27 213 35 179 20 206 28 308 80 70
36 113 50 212 69 101 20 141 34 221 74 55 29 140 61 196 76 80 22 109 35 155
71 36 28 81 52 125 66 111 34 119 38 178 88 32 27 80 56 109 66 60 20 83 36
114 81 13 18 47 43 80 58 32 15 81 49 108 76 28 26 82 68 120 92 39 25 82 62
98 85 15 22 48 55 72 72 25 18 59 53 77 79 17 26 58 75 90 110 32 35 72 91 89
125 18 34 51 80 74 102 30 28 49 59 65 102 13 36 41 84 67 114 51 60 55 68 83
181 11 45 38 115 60 155 55 102 67 150 96 378 14 110 34 227 44 259 18 55 20
90 20 436 0 349 -1 381 -20 434 -11 33 -28 137 -40 243 -25 231 -32 257 -87
367 -24 48 -55 132 -69 184 -25 95 -49 147 -80 173 -21 17 -53 81 -71 141 -10
35 -28 63 -63 96 -28 28 -63 77 -84 119 -30 61 -62 98 -208 245 -95 95 -200
190 -233 212 -33 21 -79 56 -102 77 -23 21 -70 51 -105 67 -40 18 -81 47 -107
75 -38 41 -55 50 -140 76 -72 23 -104 38 -126 61 -39 42 -61 52 -193 95 -61
20 -114 40 -117 45 -18 30 -104 63 -217 86 -97 19 -147 36 -238 79 -106 50
-126 56 -253 75 -98 14 -183 34 -290 69 -159 52 -222 66 -347 76 -134 11 -222
26 -409 71 -230 56 -343 74 -452 74 -48 0 -122 7 -165 15 -44 8 -117 19 -164
25 -47 6 -141 26 -210 45 -90 25 -179 40 -315 54 -216 23 -366 51 -434 82 -83
38 -122 49 -244 69 -135 23 -175 38 -221 77 -36 33 -83 53 -184 83 -64 18 -76
26 -102 63 -16 23 -55 60 -87 83 -53 37 -60 47 -91 125 -49 121 -61 173 -68
274 -6 86 -5 97 42 260 l48 170 60 61 c34 34 72 75 85 93 12 17 42 41 65 52
22 12 61 42 86 69 39 41 54 49 105 60 135 28 182 42 225 70 73 47 125 60 290
75 254 23 455 20 612 -11 73 -14 163 -39 199 -55 37 -16 117 -43 179 -61 100
-28 118 -37 156 -75 25 -24 79 -59 128 -82 69 -33 91 -50 121 -91 20 -27 57
-64 81 -82 25 -17 62 -60 83 -93 22 -34 58 -83 80 -109 50 -58 64 -84 86 -161
10 -33 37 -96 60 -140 24 -44 48 -98 55 -120 29 -92 79 -159 125 -168 38 -7
256 19 317 38 34 11 118 20 233 26 99 5 259 14 355 19 96 5 261 14 366 19 147
7 204 14 252 30 41 14 87 21 140 21 55 0 97 6 138 21 49 18 92 23 249 28 105
4 196 11 204 15 13 8 241 21 563 31 64 2 126 9 137 15 55 29 65 140 32 339
-16 91 -28 131 -65 206 -25 51 -57 134 -70 185 -13 51 -34 104 -45 119 -64 79
-82 108 -96 159 -25 89 -44 127 -86 168 -25 24 -49 64 -69 114 -32 79 -52 108
-95 136 -14 9 -39 42 -57 73 -17 31 -51 73 -75 95 -24 21 -52 55 -63 76 -11
22 -39 50 -70 70 -30 19 -61 50 -76 76 -16 27 -44 55 -70 70 -24 14 -59 43
-77 64 -17 21 -60 54 -94 74 -35 20 -63 40 -63 44 0 24 -77 81 -142 107 -54
21 -86 42 -124 80 -37 37 -69 58 -112 74 -35 12 -84 41 -114 66 -45 39 -137
85 -169 85 -18 0 -84 38 -104 60 -32 36 -83 56 -199 80 -84 18 -119 31 -155
56 -84 60 -119 74 -204 84 -120 15 -171 28 -274 71 -127 54 -182 66 -367 85
-128 12 -182 23 -264 50 -56 19 -122 34 -146 34 -23 0 -65 7 -92 15 -27 9
-114 21 -194 27 -165 13 -1438 19 -1545 8z"/>
<path d="M35995 18780 c-8 -9 -19 -39 -25 -67 -14 -64 -3 -109 45 -189 19 -32
35 -60 35 -64 0 -3 11 -59 25 -125 18 -90 36 -143 71 -211 39 -78 49 -113 70
-230 29 -168 38 -195 81 -258 37 -54 54 -106 78 -249 12 -66 27 -116 46 -150
64 -115 78 -155 97 -270 20 -114 29 -140 86 -239 21 -36 35 -88 57 -210 29
-160 39 -190 103 -300 19 -33 34 -84 50 -175 26 -139 41 -185 81 -237 33 -44
51 -99 70 -218 16 -103 34 -160 71 -219 32 -52 51 -115 74 -246 17 -98 29
-136 71 -220 39 -80 56 -132 79 -236 22 -104 38 -152 75 -223 36 -70 51 -115
71 -211 16 -78 43 -165 73 -240 31 -75 57 -158 70 -228 16 -84 33 -134 71
-212 38 -78 56 -132 76 -225 19 -94 37 -146 75 -223 36 -74 54 -126 68 -200
25 -129 44 -190 92 -295 26 -59 45 -122 59 -204 25 -139 30 -154 75 -222 36
-54 53 -108 84 -273 16 -84 27 -114 55 -156 46 -65 61 -111 86 -260 17 -102
28 -135 71 -221 44 -88 53 -118 74 -238 24 -138 35 -169 93 -261 25 -40 36
-76 56 -188 18 -99 32 -151 52 -185 15 -26 37 -65 50 -87 15 -27 31 -88 48
-190 22 -129 32 -162 70 -240 51 -104 59 -128 81 -250 12 -66 30 -117 66 -190
38 -76 55 -128 74 -219 18 -87 38 -149 74 -225 27 -59 60 -136 72 -174 13 -37
33 -76 44 -87 22 -21 26 -21 1804 -20 1764 0 1783 1 1822 20 46 24 102 96 124
160 8 25 26 121 40 213 19 133 32 186 60 255 49 117 61 159 80 282 21 138 40
210 77 295 41 93 55 147 73 290 19 148 47 254 85 320 36 63 47 105 66 252 19
145 27 177 70 277 41 93 59 165 74 296 17 140 36 215 81 313 40 85 48 121 84
342 10 66 29 131 56 193 41 96 62 180 74 292 13 122 36 214 70 277 44 80 60
139 80 288 20 151 31 194 67 274 43 98 56 151 83 336 23 158 28 176 69 260 50
99 59 133 76 278 14 122 31 189 71 280 30 67 45 131 70 295 12 78 44 132 79
132 30 0 68 -55 79 -117 32 -171 46 -222 77 -293 21 -50 39 -114 49 -176 9
-55 22 -141 31 -193 8 -51 26 -121 40 -155 14 -33 37 -87 50 -118 15 -36 32
-109 44 -198 19 -135 38 -202 93 -335 17 -40 34 -117 51 -232 25 -170 32 -195
99 -368 25 -65 41 -129 55 -232 14 -95 30 -163 48 -205 55 -129 73 -197 94
-345 23 -172 37 -224 74 -288 41 -69 54 -115 71 -248 19 -147 40 -237 70 -297
38 -77 54 -140 79 -309 21 -144 29 -173 64 -245 53 -108 59 -127 82 -294 24
-171 32 -204 75 -302 34 -80 59 -177 70 -275 11 -98 32 -177 69 -261 47 -109
62 -165 86 -337 11 -82 29 -170 39 -197 27 -70 97 -166 136 -184 30 -14 217
-16 1810 -16 1589 0 1780 2 1810 16 37 17 119 117 146 178 9 23 27 91 38 151
16 86 30 129 64 195 41 79 64 153 97 313 6 32 31 95 55 140 41 79 57 133 86
301 7 44 30 105 60 167 39 77 54 125 73 220 19 96 35 143 75 223 34 70 55 127
66 186 24 128 33 157 82 257 38 78 48 112 68 230 25 148 39 194 79 246 34 45
51 95 70 213 21 126 39 179 76 228 37 49 54 102 80 251 17 100 28 136 70 220
42 84 53 120 70 220 27 154 34 178 80 250 45 71 53 98 75 230 15 97 22 116
101 265 16 30 29 82 39 155 21 145 28 172 81 274 35 67 50 113 70 211 20 98
36 147 75 225 39 79 55 126 74 224 20 97 34 140 65 198 39 71 51 110 85 293
11 58 32 116 65 185 38 77 55 129 75 225 20 97 38 148 76 225 36 73 54 127 69
200 26 135 35 164 86 281 30 72 49 135 64 217 23 135 30 153 70 213 41 59 56
105 79 240 15 84 28 128 50 167 60 104 73 140 101 296 33 177 41 202 76 248
34 45 51 98 70 217 15 99 40 165 98 260 15 24 31 76 41 130 31 176 36 194 82
271 52 86 73 159 73 253 0 68 -16 117 -47 145 -19 16 -110 17 -1718 17 l-1698
1 -24 -23 c-32 -30 -57 -79 -92 -181 -16 -45 -41 -113 -56 -152 -14 -38 -38
-137 -51 -220 -25 -147 -36 -188 -89 -314 -26 -62 -37 -113 -69 -329 -9 -57
-27 -131 -42 -165 -55 -132 -73 -197 -94 -344 -23 -167 -40 -233 -76 -305 -33
-64 -51 -138 -69 -282 -19 -146 -31 -194 -63 -266 -47 -107 -62 -164 -87 -334
-23 -157 -29 -179 -69 -261 -56 -115 -52 -99 -76 -277 -13 -96 -32 -183 -50
-233 -15 -44 -40 -111 -53 -150 -14 -38 -33 -124 -42 -190 -20 -154 -39 -233
-77 -320 -41 -93 -55 -147 -73 -290 -19 -146 -36 -213 -75 -300 -39 -87 -56
-154 -75 -300 -18 -143 -32 -197 -73 -290 -38 -88 -46 -117 -77 -295 -13 -80
-29 -161 -35 -182 -12 -40 -95 -173 -128 -201 -27 -25 -64 -18 -79 14 -13 26
-45 229 -58 359 -3 36 -20 104 -36 150 -50 140 -79 256 -104 425 -17 113 -36
195 -65 279 -52 150 -65 210 -85 371 -21 172 -31 213 -70 298 -39 85 -59 173
-75 317 -17 155 -28 205 -71 306 -44 104 -63 185 -78 340 -13 131 -30 200 -71
291 -42 93 -57 157 -74 321 -15 142 -27 187 -100 376 -19 50 -31 109 -41 207
-19 176 -29 222 -76 339 -27 68 -44 133 -59 230 -40 259 -48 298 -75 361 -53
124 -65 168 -80 295 -23 192 -31 227 -85 391 -35 108 -54 186 -66 274 -20 158
-41 204 -103 233 l-46 21 -1738 3 c-1923 3 -1752 8 -1840 -61 -66 -51 -89
-118 -107 -307 -14 -138 -32 -222 -66 -304 -51 -123 -64 -171 -75 -280 -18
-168 -43 -286 -82 -373 -46 -101 -53 -130 -72 -299 -18 -168 -34 -232 -81
-336 -25 -56 -39 -106 -50 -185 -43 -309 -45 -318 -108 -468 -17 -42 -33 -117
-51 -245 -28 -204 -52 -305 -94 -413 -36 -91 -38 -100 -61 -269 -13 -89 -31
-171 -51 -227 -49 -137 -77 -253 -99 -415 -26 -191 -36 -236 -72 -315 -40 -87
-54 -148 -78 -336 -23 -174 -29 -199 -72 -294 -36 -80 -54 -156 -67 -296 -14
-138 -32 -214 -75 -319 -41 -99 -63 -198 -71 -326 -10 -160 -35 -220 -87 -207
-34 9 -53 49 -87 183 -17 66 -42 145 -55 175 -34 72 -52 150 -70 292 -19 147
-30 189 -67 253 -45 79 -57 122 -79 287 -12 88 -32 181 -47 222 -13 39 -38
106 -53 150 -18 49 -37 136 -49 227 -20 143 -44 235 -81 308 -26 52 -46 137
-65 275 -20 146 -39 224 -71 286 -31 62 -60 172 -74 284 -16 132 -39 233 -67
295 -44 97 -53 131 -83 303 -23 129 -39 189 -70 261 -44 103 -61 173 -85 349
-8 65 -27 147 -40 182 -14 36 -37 95 -51 132 -15 41 -35 132 -50 238 -20 135
-32 187 -61 255 -53 128 -62 163 -83 310 -25 179 -33 214 -74 307 -45 102 -52
133 -76 305 -31 221 -38 241 -123 321 -39 37 -81 70 -92 73 -11 2 -811 6
-1778 7 -1573 2 -1760 0 -1772 -13z"/>
<path d="M117573 15609 c-106 -9 -161 -23 -217 -51 -70 -36 -147 -58 -291 -84
-140 -25 -165 -35 -252 -98 -18 -13 -71 -33 -119 -45 -101 -25 -125 -37 -178
-84 -23 -21 -71 -47 -113 -62 -52 -19 -89 -42 -132 -79 -35 -32 -79 -61 -112
-72 -33 -12 -66 -33 -89 -57 -19 -22 -66 -59 -105 -84 -38 -25 -94 -69 -125
-98 -30 -28 -75 -66 -101 -83 -25 -16 -58 -49 -74 -71 -15 -23 -50 -57 -76
-77 -29 -21 -63 -60 -86 -97 -20 -34 -63 -90 -94 -123 -32 -34 -65 -77 -74
-95 -9 -19 -40 -56 -69 -84 -39 -36 -59 -66 -75 -110 -12 -32 -40 -78 -61
-101 -47 -51 -63 -81 -85 -162 -12 -41 -30 -77 -55 -105 -47 -54 -62 -82 -94
-188 -17 -56 -38 -101 -61 -130 -42 -53 -60 -108 -80 -254 -20 -149 -32 -196
-72 -288 -54 -123 -67 -255 -67 -692 -1 -496 7 -584 77 -800 30 -93 58 -197
61 -230 15 -131 28 -174 76 -251 32 -49 56 -103 70 -156 23 -87 35 -110 87
-172 20 -24 44 -72 60 -124 21 -63 39 -97 69 -131 43 -48 73 -101 93 -163 8
-24 30 -52 62 -79 28 -23 61 -63 74 -90 14 -26 42 -60 64 -76 22 -15 50 -46
62 -68 12 -22 47 -65 78 -96 31 -31 70 -71 87 -90 68 -74 181 -176 219 -198
22 -12 52 -40 67 -61 18 -25 49 -50 86 -69 33 -17 71 -46 87 -66 19 -26 51
-48 100 -70 39 -18 97 -55 127 -82 44 -38 75 -55 134 -73 51 -16 99 -41 142
-72 62 -46 78 -53 187 -79 28 -6 91 -32 140 -57 123 -61 149 -69 283 -87 71
-10 163 -32 232 -55 191 -63 290 -73 706 -73 417 1 518 12 704 73 63 21 156
44 205 50 134 17 197 36 304 90 53 26 119 53 146 59 107 25 125 33 189 81 40
29 91 56 124 65 76 23 109 40 160 87 23 21 75 54 116 72 50 23 82 45 101 70
16 21 51 49 79 63 51 25 118 81 245 203 37 36 83 79 102 97 18 17 70 70 114
117 44 48 106 114 138 147 32 34 65 75 73 92 9 18 40 57 69 87 29 30 61 77 71
103 11 27 42 76 71 110 36 43 62 87 83 143 17 44 42 92 56 105 43 40 71 99 93
197 22 96 38 136 77 188 34 44 51 99 74 237 11 67 36 170 56 229 74 223 76
246 81 713 5 434 5 438 -38 688 -6 32 -26 101 -45 153 -19 54 -45 157 -59 240
-25 145 -37 182 -80 239 -38 51 -52 87 -70 175 -20 98 -25 110 -75 167 -21 25
-50 75 -66 119 -20 54 -44 93 -77 130 -26 28 -59 78 -73 111 -14 32 -47 81
-73 108 -26 28 -60 70 -74 95 -15 25 -49 70 -77 100 -28 30 -68 80 -89 110
-22 31 -57 69 -80 84 -22 16 -59 52 -81 82 -22 30 -45 54 -50 54 -5 0 -47 36
-94 79 -46 44 -108 92 -137 106 -30 15 -76 49 -104 76 -27 26 -76 59 -107 73
-34 15 -67 39 -85 61 -32 41 -70 63 -164 94 -43 14 -84 37 -118 66 -36 31 -70
50 -109 60 -133 36 -162 47 -198 76 -62 49 -83 57 -231 83 -143 26 -208 46
-303 90 -30 14 -82 30 -115 36 -74 15 -1098 22 -1232 9z m832 -729 c28 -6 103
-14 169 -19 105 -9 126 -14 192 -45 105 -52 118 -56 234 -76 128 -22 151 -31
215 -80 29 -23 79 -48 120 -60 114 -36 128 -43 172 -83 23 -21 74 -52 113 -68
86 -35 105 -48 133 -89 12 -17 49 -46 82 -63 39 -21 69 -46 87 -74 16 -23 48
-54 72 -69 24 -15 58 -49 75 -75 17 -26 49 -58 71 -70 23 -13 54 -44 71 -71
17 -26 50 -60 73 -76 27 -18 50 -44 66 -79 14 -28 48 -75 76 -105 35 -37 59
-75 79 -126 19 -49 43 -88 74 -120 38 -40 51 -64 74 -140 16 -50 43 -110 59
-134 47 -64 66 -115 83 -223 9 -54 39 -168 67 -254 47 -143 52 -168 61 -301
13 -186 13 -376 1 -565 -9 -130 -13 -158 -37 -209 -27 -59 -79 -249 -91 -336
-10 -72 -34 -134 -72 -186 -21 -31 -47 -90 -69 -159 -29 -94 -40 -117 -78
-155 -29 -31 -52 -68 -71 -118 -20 -52 -43 -90 -81 -130 -29 -31 -64 -82 -78
-112 -20 -41 -38 -62 -73 -84 -25 -16 -58 -49 -73 -73 -15 -24 -50 -59 -78
-78 -29 -19 -61 -52 -74 -75 -14 -24 -42 -53 -71 -70 -27 -17 -60 -48 -76 -70
-17 -25 -50 -51 -92 -74 -36 -19 -93 -59 -127 -88 -45 -40 -79 -59 -130 -76
-47 -15 -86 -36 -122 -67 -39 -33 -71 -50 -124 -66 -86 -24 -163 -58 -179 -77
-33 -39 -78 -52 -416 -112 -105 -19 -201 -42 -246 -60 l-74 -30 -247 0 -247 0
-74 30 c-45 18 -140 41 -246 60 -357 63 -339 59 -434 123 -29 19 -83 42 -120
52 -86 23 -117 38 -175 86 -26 23 -72 47 -110 60 -64 21 -105 46 -167 104 -18
16 -59 44 -92 60 -38 20 -69 45 -90 73 -17 23 -53 56 -80 73 -29 18 -59 47
-74 73 -15 25 -45 56 -71 72 -26 17 -58 49 -75 76 -16 26 -49 61 -72 78 -28
20 -53 52 -72 87 -15 31 -54 86 -85 122 -38 45 -63 85 -76 125 -15 44 -34 73
-71 110 -38 38 -53 63 -63 101 -34 132 -44 157 -77 201 -48 63 -59 91 -78 209
-21 124 -40 200 -67 261 -11 26 -29 102 -40 168 -18 108 -20 155 -17 446 l4
325 33 90 c35 100 63 212 80 323 15 96 40 165 83 228 21 32 44 85 58 135 28
105 41 131 83 164 34 25 49 53 87 157 15 39 36 71 66 100 25 24 56 64 70 90
13 25 44 63 69 84 25 20 58 57 72 81 15 26 43 54 70 70 28 16 57 45 75 75 18
28 47 58 72 73 23 13 56 45 73 69 22 31 50 55 91 75 40 20 67 42 82 66 23 38
47 53 132 85 30 11 77 40 105 63 53 46 65 52 178 87 40 12 91 38 120 59 72 55
79 58 209 80 93 16 139 30 217 66 92 43 107 47 216 56 65 5 138 13 163 18 62
12 463 12 525 1z"/>
<path d="M116753 13829 c-54 -11 -72 -28 -88 -81 -13 -45 -15 -242 -15 -1643
l0 -1591 23 -44 c44 -87 26 -83 443 -81 212 1 377 7 393 12 14 6 41 25 59 42
66 63 64 44 61 533 l-3 444 24 25 c40 43 117 59 250 52 63 -3 133 -12 155 -19
37 -12 43 -20 90 -114 28 -56 66 -120 85 -142 23 -26 45 -69 63 -125 21 -66
38 -97 77 -141 35 -40 55 -74 66 -114 21 -74 44 -119 87 -170 19 -23 47 -73
61 -110 32 -84 50 -101 145 -141 l73 -31 445 0 c490 0 491 0 512 61 26 74 7
139 -63 217 -37 42 -62 82 -81 133 -20 50 -41 85 -70 113 -28 28 -51 66 -73
121 -23 56 -47 96 -80 131 -33 35 -56 72 -71 115 -16 42 -36 76 -61 99 -43 41
-82 100 -99 152 -10 29 -9 43 2 70 18 42 142 153 215 193 43 23 63 42 85 80
16 28 48 70 72 95 48 49 65 83 90 180 9 36 32 93 51 128 52 93 64 165 64 397
0 216 -4 243 -55 350 -18 39 -43 107 -55 153 -17 63 -32 95 -61 130 -93 112
-125 152 -142 176 -9 14 -59 49 -110 79 -50 30 -101 65 -112 77 -31 34 -67 49
-184 75 -59 13 -149 40 -199 59 -50 20 -121 40 -159 46 -72 11 -1860 20 -1910
9z m1556 -803 c119 -29 236 -67 254 -84 11 -9 29 -37 42 -62 13 -25 37 -62 53
-83 35 -44 57 -127 47 -181 -4 -19 -27 -61 -51 -92 -24 -31 -44 -61 -44 -67 0
-26 -57 -81 -108 -104 -30 -13 -68 -34 -86 -47 -17 -14 -49 -29 -71 -35 -55
-14 -582 -18 -615 -4 -85 37 -99 89 -101 392 -1 208 1 243 16 275 21 43 78 93
120 104 48 13 482 3 544 -12z"/>
</g>
</svg>
